<?xml version="1.0" encoding="utf-8"?>
<!-- Generator: Adobe Illustrator 11 Build 196, SVG Export Plug-In . SVG Version: 6.0.0 Build 78)  -->
<!DOCTYPE svg PUBLIC "-//W3C//DTD SVG 1.0//EN"    "http://www.w3.org/TR/2001/REC-SVG-20010904/DTD/svg10.dtd" [
	<!ENTITY ns_flows "http://ns.adobe.com/Flows/1.0/">
	<!ENTITY ns_extend "http://ns.adobe.com/Extensibility/1.0/">
	<!ENTITY ns_ai "http://ns.adobe.com/AdobeIllustrator/10.0/">
	<!ENTITY ns_graphs "http://ns.adobe.com/Graphs/1.0/">
	<!ENTITY ns_vars "http://ns.adobe.com/Variables/1.0/">
	<!ENTITY ns_imrep "http://ns.adobe.com/ImageReplacement/1.0/">
	<!ENTITY ns_sfw "http://ns.adobe.com/SaveForWeb/1.0/">
	<!ENTITY ns_custom "http://ns.adobe.com/GenericCustomNamespace/1.0/">
	<!ENTITY ns_adobe_xpath "http://ns.adobe.com/XPath/1.0/">
	<!ENTITY ns_svg "http://www.w3.org/2000/svg">
	<!ENTITY ns_xlink "http://www.w3.org/1999/xlink">
]>
<svg 
	 xmlns:x="&ns_extend;" xmlns:i="&ns_ai;" xmlns:graph="&ns_graphs;" i:viewOrigin="0 25.9199" i:rulerOrigin="0 0" i:pageBounds="0 25.9199 25.9199 0"
	 xmlns="&ns_svg;" xmlns:xlink="&ns_xlink;" xmlns:a="http://ns.adobe.com/AdobeSVGViewerExtensions/3.0/"
	 width="25.92" height="25.92" viewBox="0 0 25.92 25.92" overflow="visible" enable-background="new 0 0 25.92 25.92"
	 xml:space="preserve">
	<metadata>
		<variableSets  xmlns="&ns_vars;">
			<variableSet  varSetName="binding1" locked="none">
				<variables></variables>
				<v:sampleDataSets  xmlns="&ns_custom;" xmlns:v="&ns_vars;"></v:sampleDataSets>
			</variableSet>
		</variableSets>
		<sfw  xmlns="&ns_sfw;">
			<slices></slices>
			<sliceSourceBounds  y="0" x="0" width="25.92" height="25.92" bottomLeftOrigin="true"></sliceSourceBounds>
		</sfw>
<?xpacket begin='﻿' id='W5M0MpCehiHzreSzNTczkc9d'?><x:xmpmeta xmlns:x='adobe:ns:meta/' x:xmptk='XMP toolkit 3.0-29, framework 1.6'>
<rdf:RDF xmlns:rdf='http://www.w3.org/1999/02/22-rdf-syntax-ns#' xmlns:iX='http://ns.adobe.com/iX/1.0/'>

 <rdf:Description rdf:about='uuid:467e8964-3409-11e1-8e65-002608010590'
  xmlns:pdf='http://ns.adobe.com/pdf/1.3/'>
  <pdf:Producer>Adobe PDF library 6.66</pdf:Producer>
 </rdf:Description>

 <rdf:Description rdf:about='uuid:467e8964-3409-11e1-8e65-002608010590'
  xmlns:tiff='http://ns.adobe.com/tiff/1.0/'>
 </rdf:Description>

 <rdf:Description rdf:about='uuid:467e8964-3409-11e1-8e65-002608010590'
  xmlns:xap='http://ns.adobe.com/xap/1.0/'
  xmlns:xapGImg='http://ns.adobe.com/xap/1.0/g/img/'>
  <xap:CreateDate>2011-12-31T15:27:55-08:00</xap:CreateDate>
  <xap:ModifyDate>2011-12-31T23:45:41Z</xap:ModifyDate>
  <xap:CreatorTool>Illustrator</xap:CreatorTool>
  <xap:MetadataDate>2011-12-31T15:27:55-08:00</xap:MetadataDate>
  <xap:Thumbnails>
   <rdf:Alt>
    <rdf:li rdf:parseType='Resource'>
     <xapGImg:format>JPEG</xapGImg:format>
     <xapGImg:width>256</xapGImg:width>
     <xapGImg:height>256</xapGImg:height>
     <xapGImg:image>/9j/4AAQSkZJRgABAgEASABIAAD/7QAsUGhvdG9zaG9wIDMuMAA4QklNA+0AAAAAABAASAAAAAEA&#xA;AQBIAAAAAQAB/+4ADkFkb2JlAGTAAAAAAf/bAIQABgQEBAUEBgUFBgkGBQYJCwgGBggLDAoKCwoK&#xA;DBAMDAwMDAwQDA4PEA8ODBMTFBQTExwbGxscHx8fHx8fHx8fHwEHBwcNDA0YEBAYGhURFRofHx8f&#xA;Hx8fHx8fHx8fHx8fHx8fHx8fHx8fHx8fHx8fHx8fHx8fHx8fHx8fHx8fHx8f/8AAEQgBAAEAAwER&#xA;AAIRAQMRAf/EAaIAAAAHAQEBAQEAAAAAAAAAAAQFAwIGAQAHCAkKCwEAAgIDAQEBAQEAAAAAAAAA&#xA;AQACAwQFBgcICQoLEAACAQMDAgQCBgcDBAIGAnMBAgMRBAAFIRIxQVEGE2EicYEUMpGhBxWxQiPB&#xA;UtHhMxZi8CRygvElQzRTkqKyY3PCNUQnk6OzNhdUZHTD0uIIJoMJChgZhJRFRqS0VtNVKBry4/PE&#xA;1OT0ZXWFlaW1xdXl9WZ2hpamtsbW5vY3R1dnd4eXp7fH1+f3OEhYaHiImKi4yNjo+Ck5SVlpeYmZ&#xA;qbnJ2en5KjpKWmp6ipqqusra6voRAAICAQIDBQUEBQYECAMDbQEAAhEDBCESMUEFURNhIgZxgZEy&#xA;obHwFMHR4SNCFVJicvEzJDRDghaSUyWiY7LCB3PSNeJEgxdUkwgJChgZJjZFGidkdFU38qOzwygp&#xA;0+PzhJSktMTU5PRldYWVpbXF1eX1RlZmdoaWprbG1ub2R1dnd4eXp7fH1+f3OEhYaHiImKi4yNjo&#xA;+DlJWWl5iZmpucnZ6fkqOkpaanqKmqq6ytrq+v/aAAwDAQACEQMRAD8APMVdirsVdirsVdirsVdi&#xA;rsVdirsVdirsVdirsVdirsVdirsVdirsVdirsVdirsVdirsVdirsVdirsVdirsVZx5T8m+XtYsom&#xA;uZrmK7cFuKPGEYA0+GsZP0VxVkH/ACqby5/y03n/AAcX/VPFXf8AKpvLn/LTef8ABxf9U8Vd/wAq&#xA;m8uf8tN5/wAHF/1TxV3/ACqby5/y03n/AAcX/VPFXf8AKpvLn/LTef8ABxf9U8Vd/wAqm8uf8tN5&#xA;/wAHF/1TxV3/ACqby5/y03n/AAcX/VPFXf8AKpvLn/LTef8ABxf9U8Vd/wAqm8uf8tN5/wAHF/1T&#xA;xV3/ACqby5/y03n/AAcX/VPFVNvyl0Op43dyB2BMZP8AxAYq1/yqXRf+Wy5/5J/804q7/lUui/8A&#xA;LZc/8k/+acVd/wAql0X/AJbLn/kn/wA04q7/AJVLov8Ay2XP/JP/AJpxV3/KpdF/5bLn/kn/AM04&#xA;q7/lUui/8tlz/wAk/wDmnFXf8ql0X/lsuf8Akn/zTirv+VS6L/y2XP8AyT/5pxV3/KpdF/5bLn/k&#xA;n/zTirv+VS6L/wAtlz/yT/5pxV3/ACqXRf8Alsuf+Sf/ADTirv8AlUui/wDLZc/8k/8AmnFXf8ql&#xA;0X/lsuf+Sf8AzTirv+VS6L/y2XP/ACT/AOacVd/yqXRf+Wy5/wCSf/NOKu/5VLov/LZc/wDJP/mn&#xA;FXf8ql0X/lsuf+Sf/NOKpJ5n8kaJo9lI8NzPNdKvIIxTiB4tRfwxVg+KuxVnfl13j0u1dCVdQSrD&#xA;qCGOKvQNG1ZL6Hi1FuUH7xfEfzDFUyxV2KuxV2KuxV2KuxV2KuxV2KuxV2KuxV2KuxV2KuxV2Kux&#xA;V2KuxV2KuxV2KuxV2Kpfq+qx2EG1GuH/ALtP+Nj7YqwDzBLJLpt3JIxZ2UlmPc1xVgOKuxVnOgf8&#xA;ci2/1T/xI4qmlvPLbzLNE3GRDUHFWaaZqUV/b+ou0i7Sx+B/ocVRmKuxV2KuxV2KuxV2KuxV2Kux&#xA;V2KuxV2KuxV2KuxV2KuxV2KuxV2KuxV2KuxVCalqMNjbmV92O0cfdj/TxxVhd1czXM7TTNydvuA8&#xA;BiqWa3/xybr/AFDirBMVdirOdA/45Ft/qn/iRxVMMVR2lGkj/IfrxVMq4q6uKurirq4q6uKurirq&#xA;4q6uKurirq4qpz3EMELzzyLFDEpeSVyFVVUVLMx2AAxV4P5z/wCct/LWmXktl5b019aMRKm+kk+r&#xA;25YdTGOLu6+9F9tsVYfB/wA5jeaVnLT+X7GS3rtGkkqPT/XPMf8AC4q9U/Lr/nJHyR5vuYtNug+h&#xA;6xMQsNtdMGhkY9FjnAVS3gGVSe1cVesVxV1cVdXFXVxV1cVdXFXVxV1cVdXFXVxVL9WNfS/2X8MV&#xA;S/FUDrf/ABybr/UOKsExV2Ks50D/AI5Ft/qn/iRxVMMVRmmmkj/L+OKo/liruWKu5Yq7liruWKtS&#xA;Sxxo0kjBI0BZ3YgAAbkknFXzr+Zf/OVsdndy6Z5Ht4rtoiUl1i5BaEkbH0IwV5j/AC2NP8kjfFXj&#xA;97+fn5vXcxlk8yTxk9FhSGFR/sY0UYqyPyp/zlJ+ZOk3CDV5Idesq/HFPGkMvH/ImhVd/d1bFX1B&#xA;+X35keWvPejfpLRZjzjIW8spaLPA5FQrqCdj+yw2PzBAVeBf85S/mnd3OqN5F0uYx2FoEk1h0NDL&#xA;OwDpCafsRqQxHdv9XFWKfkz/AM49a7+YUTardznSfLiMUS8Kc5bh1+0sCEr8K9C52rsKkGir2S9/&#xA;5ww8ivZlLLXNUgvabTTfV5oq+PpLFC3/ACUxV85/mf8AlX5n/LvW1sNWUS209X0/UoQfRnQdaE/Z&#xA;da/Eh3HuKEqvon/nGr83brzPpkvlnXJzNrelxiS2uZDV7i1BC/Ef2pIiQCe4IPWpxV7fyxV3LFXc&#xA;sVdyxV3LFXcsVdyxV3LFXcsVQWpmvp/7L+GKoHFUDrf/ABybr/UOKsExV2Ks50D/AI5Ft/qn/iRx&#xA;VMMVRVgaSN8sVR1cVdXFXVxV1cVdXFXgH/OV35gXem6RZeUbCUxS6srXGpOpo31VW4pH8pHB5f6t&#xA;OhOKvJ/yN/JK9/MjVJ5rmZ7Ly5p7Kt9dxgGSSRtxBDyqOXHcsQQoptuMVfWui/kT+UmkWQtYfLFl&#xA;cjhwea9iF3K1erc5uZB/1aU7Yq80/OL/AJxa8v3uk3OseRbY2GsW6mVtJQs0FyFFSsasT6clPshf&#xA;hPSgrXFXzj+WXn3UvInnC11eEv8AVg3o6naDb1bdjSRCD+0v2l8GGKpbqNxceaPOdxccv9I1vUHY&#xA;MamjXUxptt054q/RrQ9G0/RNGstH06MQ2NhClvbxjskahRXxJpUnucVRuKsK/OLyDbeePIOpaO0Q&#xA;fUI4zc6TIftJdxKTHQ9ue6N7McVfC35d+apvKXnfSddBKpZ3Ci7UA1Nu/wC7nWniY2anvir7l84e&#xA;eNA8p+W5vMGqT0skUegsdGed3FUjiFfiZvupudhir5A/MH8+/Pnm68lWG9l0fR6kQ6dZyNHVf+Lp&#xA;V4vIT3r8PgBirBV1PXouN2t3dR1Y8LgSSD4u9Hr1xV6Z+W//ADkd508tXkNvrdzLruhlgs0Vy3qX&#xA;Ma13aGZjyJA/ZckdtuuKvr3Qtd0vXdItdX0qcXOn3qCS3mXaqnY1B3BBFCD0O2Ko+uKurirq4q6u&#xA;KoPUDX0/p/hiqDxVA63/AMcm6/1DirBMVdirOdA/45Ft/qn/AIkcVTDFURZGjt8sVRnLFXcsVdyx&#xA;V3LFXcsVfHf/ADlO87fmkRJXgthbiH/Uq5P/AA5bFX0D/wA4oQWsf5O2TwgCSa7u3uSOpkEnAFvf&#xA;00XFXsOKuxV8Sf8AOUX5bnyt56bWrOPjo/mIvcxhR8Md0CDcR/7IsJB/rEdsVeQ6ZfSafqVpfxis&#xA;lpNHOgrSrRsHG/0Yq/TDS9StNU0y01Kzf1LS9hjuLd/5o5VDqfuOKonFXYq+Bf8AnIXycfK35qav&#xA;bxx8LLUWGpWXh6dySzgeyzB1HsMVSDzf+Ymu+aNJ0HS75yLXQbRbWFAxIkdTT1nr+16YRfo9zir6&#xA;A/5xp/IXSJdItvO/mm1S8mvAX0fTp0DRRxA0W4kRtnZ6VQHYL8W5I4qvpSeztLi2a1uII5rV14PB&#xA;IqtGV8CpBBGKvj//AJye/JbTPKVxbeafLluLbRdQlMF5YoP3dvcEFkMY/ZjkCt8PRSNtiAFUf/zi&#xA;V52lW61LyfdS1hkT6/pqsfsupCzov+sCrU9mOKvpjliruWKu5Yq7liqFvjXh9P8ADFULiqB1v/jk&#xA;3X+ocVYJirsVZzoH/HItv9U/8SOKphiqtamjn5YqiuWKu5Yq7liruWKu5Yq+Z/8AnLry5IuoaH5l&#xA;jWsUsT6dcP2DxsZoq/6weT/gcVTr/nDXzvAser+S7mQLKz/pPTgx+1VVjuEFfAIjAf6xxV9QYq7F&#xA;WDfnR+X0fnr8v9Q0dEB1KIfW9Kc02uoQSi1PQSKTGfZsVfnxJHJHI0cilJEJV0YEEEGhBB6EYq+2&#xA;f+cUfOH6c/LJNKmfleeX5mtGBNWMElZYG+VGZB/q4q9nxV2Kvnn/AJzG8m/XvKmm+aoI6z6PP9Wu&#xA;2A/49rogKzHwSZVA/wBc4q+SbS3a5uobdTRppFjBpXdiB0+nFX6a6fY22n2FtYWqena2kSQQRj9m&#xA;ONQij6AMVV8VYn+a3lBfN/5e63oIXlcXNuz2fj9ZhIlh37VkQA+xxV8F/l95ml8q+dtI1wEqtlcr&#xA;9ZA6mB/3c6/TGzDFX36siuoZSGVhVWG4IPcYq3yxV3LFXcsVQ92a8Pp/hiqHxVA63/xybr/UOKsE&#xA;xV2Ks50D/jkW3+qf+JHFUwxVUtzRz8sVRFcVdXFXVxVbLPFEheV1jQdWYgD7zirop4pUDxOsiHoy&#xA;kEfeMVY7+Yfk6084+UdQ0G4IV7hOVrMR/d3EfxRP/wAFs3tUYq+JNJ1PzB5H84wX0INprWh3R5Rv&#xA;UUeJiskb0pVXFVbxBxV+hnk3zVpnmzyxp3mHTWraahCJQlQTG/SSJiP2o3BU+4xVOcVdir4s/wCc&#xA;q/y6/wAO+eB5hsouOl+Y+Uz8R8KXqU9df+elRJ7kt4Yqp/8AOJ3nA6J+ZY0iaThZeYYGtmBNF+sR&#xA;Vlgb57Og92xV9r4q7FUn85eW7bzN5U1bQLmnp6lbSW4Y9Edl/dvt/I9G+jFX5u3lreadqE9pcK0F&#xA;5ZytFKvRkliYqw+asMVfpL5S1tNd8raRrSEEalZwXRp2M0auR9BNMVTXFXYq/Pz89/Kv+GfzU16w&#xA;jQJa3E/160AFF9K7Hq8V9kZmT6MVfUf5JeZTr/5ZaJdyNyubaH6lc9zztT6QJ92RVb6cVZ1XFXVx&#xA;V1cVUbg14/TiqjiqB1v/AI5N1/qHFWCYq7FWc6B/xyLb/VP/ABI4qmGKr4jR/oxVV5YqoX1/aWFl&#xA;Pe3kqwWltG008zfZREHJmPyAxV8tfmJ/zkz5m1a4msvKhOkaUCVW7oDdyr/NU1EQPYL8X+V2xV5R&#xA;TzT5lvC1L7Wr0bsf313Lv4/bbfFWx/iryzeq4+vaJfdVP761l+E9R9htsVe0flb/AM5ManbXUWle&#xA;d5PrVi5CR6wFpNET09ZUFJE9wOQ/ysVb/wCcm/Ilu7Wnn7R+E1lfLHFqUkJDIWI/cXAK1BEi/AW9&#xA;l8cVV/8AnEn8zv0Vr0vknUZaWGrsZtMZjtHeKvxRjwEyL/wSgftYq+vMVdirDPzf/L6Dz55E1DQj&#xA;xW+p9Y0uVv2LqIEx7noHqUY+DHFX5/2F5qWg65b3kQa31LSrlJUVgVaOe3kDAMOoKsu+Kv0i8ua7&#xA;Z6/oGna3ZH/RdStorqEHchZUDcT7rWh98VTHFXYq+IP+cqPJ36A/NCfUIY+Nl5giW+Qj7Pr/AN3c&#xA;L8+a8z/rYq+hP+cWde/Sv5QafAzcpdJnuLGQ96K/rIPojmUYq9bxV2Kvlj/nNLy0EvPLvmWNN5Ul&#xA;066f/jGfWg+/nL92Kof/AJxI1+tlr2gO391JFfQL4+ovpSn6PTjxV9C8sVdyxV3LFVOY1piqniqB&#xA;1v8A45N1/qHFWCYq7FWc6B/xyLb/AFT/AMSOKphiramjfQcVX1xV4t/zlH5qm03ydZ6Hbvwl1qc+&#xA;uQdzb21Hdf8AZSMn0VGKvNP+cbPyo07z35qurjW4TPoGjRrJcwcmQTTzEiGIspVuPws5oewHfFX2&#xA;tpOjaTo9jHYaVZw2FlF/d29vGsUY7fZUAV98VU9d8v6Hr+nyadrVjBqFlKKPBcIHX5iv2WHYjcYq&#xA;+Nfzz/5x51PyRPLregrJfeVJGqx3eazLE/BLTdo/5ZPobfcqsY/L380pNF0658reYI31LybqSNFd&#xA;Wlay2/qdZbcnoQfi49K7ih3xVh95HJouuH6heLM1nMstjqEBoGCkPDKndTShod1Ox3GKvvv8nvzF&#xA;tvPvkay1oMo1BB9X1WBduF1GBz27K4IdfY4qzbFXYq+Mf+csPy6/QHnVPM1lFx0zzFykm4j4UvUp&#xA;6wP/ABlFJPc8vDFXrH/OIfnA6r+X9zoE8nK58v3BWJT1+q3VZI/ukEg+VMVe7Yq7FXin/OWPk39N&#xA;/lt+mIY+V75emFyCBVjbTUinUe32HPsuKsI/5wr174/M2gO/UW9/bx/LlFMfxixV9RYq7FXk3/OU&#xA;WhDVfye1OULym0qa3v4R4FJPSc/RFM+Kvmj/AJxt1g6f+aVnATRNTt7i0c9vseuv3tCBir7Crirq&#xA;4q6uKrXNaYqtxVA63/xybr/UOKsExV2Ks50D/jkW3+qf+JHFUwxVqtGHyP8ADFW64q+a/wDnLRZv&#xA;0x5dc/3Jt7gJ/rB05fgVxVnn/OF0tqfKXmGJafWkv43l8fTaECOv+yV8VfRWKuxVZPBDPDJBPGss&#xA;MqlJYnAZWVhRlZTsQR1GKvk38+f+caZtJ+s+aPJMDS6UOUuoaOm7243ZpIB+1EO6dV7VX7Kr5yxV&#xA;63/zjd+Z/wDgvzylnfS8NB10pa33I/DFLWkE/txZuLH+ViewxV9z4q7FWJfmr5Et/PHkXUvL8gUX&#xA;Mqerp8rf7ruoviiavYE/C3+STir5K/5xq8zXHlP834NLv1aBNV9TSLyF9ik5YekCD+0Jown0nFX3&#xA;FirsVQuraZZ6rpd5pd6nqWd9BJbXMf8ANHKhRx/wLYq+Uv8AnHzyD598ofnfPaXWlXUenQQ3lnfa&#xA;i0TpbvCPiidJCOLiSSOMqAf1Yq+t8VdiqRefNKGr+SPMGlkVN7p11AviGeFgpFfA4q/Pv8vNROne&#xA;fPL17Wiw6hbGQ/5BlVX/AOFJxV931xV1cVdXFXVrirsVQOt/8cm6/wBQ4qwTFXYqznQP+ORbf6p/&#xA;4kcVTDFVjmjD5H+GKtcsVeT/APOSHlGbXfIy6laoZLvQ5DclR1Nsy8Z6f6tFc+ynFXi35Cfmp/yr&#xA;7zmtxeFjoOpqttqyLU8F5VjnCjqYiT/sSwG+Kvu7TdS0/VLCDUNOuI7uxuUElvcwsHjdT0KsNsVR&#xA;OKuxV2KvnH8+f+caItV+s+aPJFusWpnlLqGjIKJcHctJbjosvinRu1G+0q+TpoZoJnhmRopomKSR&#xA;uCrKymhVgdwQcVfcf/ONn5n/AOM/IyWN/N6mvaCEtb0savLDSkE5J6llXix68lJPUYq9cxV2KvCP&#xA;PX/OM51781LXzfpmpR6dp81xDd6tbAMJ/WiYFntyAV5ScQTy6NVt+mKvd8VdirsVdirsVdiriAQQ&#xA;RUHYg4q/MoenY6yKMwjtbnZ/2gI5Ou3fbFX3/wAsVdyxV3LFVymtcVXYqgdb/wCOTdf6hxVgmKux&#xA;VnOgf8ci2/1T/wASOKphiqlMaMvyP8MVWcsVacK6MjgMjAhlIqCD1BGKvl784vyKvdDnudf8txG5&#xA;0JiZZ7KMEyWgO5oNy8Q8Ruo67CuKpB+UX53eZvy61AJCTf8Al+Zq3mkyMQu/WSFt/Tk/A9x0IVfb&#xA;Xkbz75Z87aJHrGgXYuIDRZ4W+GaCSlTHMnVWH3HqCRirIcVdirsVeLfnn/zjvpvnaKXXdAWOx81o&#xA;tXGyQ3oA+zLQfDL2WT6G2oVVfMv5a+btb/Kv8yobnUbea1+rSGy12wdSsht3I9QcT1K0WRPEgb0O&#xA;Kv0At54biCO4gcSQzIskTjoysKqR8wcVX4q7FXYq7FXYq7FXYq7FXYq/M3zDAINf1KAHkIrqdAT3&#xA;4yMMVfe6SK6h1IZWAKkdCDirfLFXcsVVIjWuKqmKoHW/+OTdf6hxVgmKuxVnOgf8ci2/1T/xI4qm&#xA;GKqFwaFfp/hiqnyxV3LFWia7HpirxD82P+cfrXVPW1vyjGltqRq9zpYokMx6loegjc+H2T7d1Xh3&#xA;lPzh5v8AIHmP6/pM0mn6lbMYru0lUhHCn4obiJqVHsdx2od8Vfav5Qfnj5a/MWy9FCNP8xQJyu9J&#xA;kapIHWSBjT1I/HuvfsSq9JxV2KuxVi3mv8rfy/8ANt7FfeYdFgv7yFPTjuGLo/CteLNGycgO3KtM&#xA;VZPFFFDEkUSBIo1CRoooFVRQAAdgMVXYq7FXYq7FXYq7FXYq7FXYq/NbzlC0Hm/XIGILRahdISOh&#xA;KzuMVfcenNXT7Ujp6Mf/ABEYqieWKu5Yqq25ry+jFVbFUHrAB0u6r/vtvwGKsCxV2Ks50D/jkW3+&#xA;qf8AiRxVMMVQ92aFPp/hiqhyxV3LFXcsVdyxVgH5nflDoXna2a5XjY69GtINQUbPQbRzgfbXwP2l&#xA;7bbFV8uaxovmvyP5jWG6E2matZuJbW6hYrWh+GWGVaVHuPkd6jFX1H+SP/OTlj5hNv5e85yR2Wut&#xA;SO11PaO3u26BX6LFK3/AsenE0UqvoDFXYq7FXYq7FXYq7FXYq7FXYq7FXYq7FX5vfmLE8P5g+Z4p&#xA;BR49Wvkcdd1uXBxV9n+Xj/uA0z/mEg/5NriqY8sVdyxVXtTXl9H8cVRGKoPV/wDjl3X/ABib9WKs&#xA;CxV2Ks50D/jkW3+qf+JHFUwxVC3poU+n+GKobliruWKsF/Mz82dF8kWqxuv13WbheVtp6MBRenqS&#xA;tvwTw2qe3chV8965+ef5latMzjVDp8Jrxt7JREq1/wAv4pD9LYqhNO/OX8zLCQPFr1xKAalLjhOp&#xA;9v3qt+GKsyj/ADn8uecdOGifmNpaiI1+r6xYAiSBzt6gQ82X34kg/wAhGKsB83+RbrQlS/s7mPV/&#xA;Lty1LPWLU8oyTv6cqgkxSgdVb6O+Kvb/APnGv8/NV/Stl5G80XP1myuB6Oj6hMSZY5f9127uftI3&#xA;2UruDRelKKvqvFXYq7FXYq7FXYq7FXYq7FXYq7FXYq/Of81kdPzQ83hwVJ1rUGofBrqQg/SDir68&#xA;8nuW8paIWNSbC1JJO5Poriqb8sVdyxVE2Rrz+j+OKorFUHq//HLuv+MTfqxVgWKuxVnOgf8AHItv&#xA;9U/8SOKphiqD1A0Mf+y/hiqE5Yqgta1e10jSLzVLo0t7KF55d9yI1LUHuaUGKvi6/vNd85ebGmKt&#xA;d6vrNyscEK71eVgkUSV6AbKPbFX2N+Wf/ONPkPyzpMD69YW+v686hrue7QTW6MescML1Tiv8zLyP&#xA;XboFWTa5+Rf5SazbmC48r2NttRZLGIWTg+PK39Ov01xV89fmT/ziR5k0j1b/AMmznW9PBLfo+Til&#xA;7GvX4T8Mc1Pbi3gpxV4cl3rmiy3lhymspJVa31CzkUpyHdJYnHVTuOQ2O43xVAxSywypLE7RyxsH&#xA;jkQlWVlNQQRuCDir77/Iv8zovP8A5Ht72d1/TdhS11iIUB9ZR8M3EU+GZfi8K1HbFXomKuxV2Kux&#xA;V2KuxV2KuxV2KuxV2Kvzw/OYEfmv5tr/ANXS5/5OHFX1R5ClZ/Ivlx3NXbS7JmPiTboTiqfcsVdy&#xA;xVF6ea+p9H8cVRmKoPV/+OXdf8Ym/VirAsVdirOdA/45Ft/qn/iRxVMMVQOpGhj/ANl/DFUFyxV5&#xA;5+fl5LB+WWorHX/SJLeJyOymZWNfY8aYq8r/AOcV9JtdQ/OCxkuArfo+2uLuFG7yKnprQdyvq8h8&#xA;sVfcmKuxV2KsQ8/flP5G8923p6/p6vdKOMOowfurqP8A1ZQPiA/lcMvtir5Y/Mn/AJxY87+WRJfa&#xA;BXzFpC1Y+gnG8jUb/HBU8/nHX/VGKsd/IPz/AH/kn8xrL4ZHsNUkTTtTtBWpErhUcL/PE5qO9Kjv&#xA;ir74xV2KuxV2KuxV2KuxV2KuxV2KuxV+fX57/wDk3/NX/Ma3/EVxV9KflvM0n5f+XGbqNOtl28Ei&#xA;VR+AxVknLFXcsVRummvqf7H+OKo7FUHq/wDxy7r/AIxN+rFWBYq7FWc6B/xyLb/VP/EjiqYYql+q&#xA;mnpf7L+GKoDlirGfzJ8uy+Y/JOq6TCK3MsQkth4ywsJUX/ZFOP04q+W/y5863vkbztp3mKCMyGyk&#xA;K3VsdjJC4Mc0e/QlWNPA0xV+gPk/zl5d836JDrOg3a3VnMByAIEkT0qY5U6o69wf1YqnWKuxV2Ku&#xA;xVj2ofl35F1DXItdvdCsrjWIWV4754VMnNDyRiafEykbE74qyHFXYq7FXYq7FXYq7FXYq7FXYq7F&#xA;XwH/AM5Dqq/nP5nCgAevEaDbc28ZP44q+gfysnMn5d+X2pSlnGlP9Qcf4YqyrliruWKo/SjX1f8A&#xA;Y/xxVMMVQer/APHLuv8AjE36sVYFirsVZ3on/HJtv9T+OKo7FUt1g09H/ZfwxVLq4q6uKvFPzd/J&#xA;ObU7mfzD5YjH1ySsl9poovqt3kh7cz+0vfqN+qrxjRfMXm7ybrDz6VeXWjanCeE6oWibb9iWNtmH&#xA;+S4OKvob8uv+cw/7qx8+WPgv6YsV/wCGmt/1mM/JcVfR/l/zJoPmLTo9S0O/g1Gxk+zPbuHANK8W&#xA;A3Vh3VqEYqmWKuxV2KuxV2KuxV2KuxV2KuxV2KuxV2KuxV8Gf85LxpH+d3mVUFATZsR7tYwMx+kn&#xA;FXt35RTCT8ttBYClLcr/AMBIy/wxVmFcVdXFUx0c19b/AGP8cVTLFUHq/wDxy7r/AIxN+rFWBYq7&#xA;FWd6J/xybX/UGKo7FUs1o09H/ZfwxVK64q6uKuriqS+ZPJ3lrzLbmDWbCO5oKJNTjMn+pKtHHyrT&#xA;FXiXnL/nHfV7LndeWZ/0jbCp+pTFUuFH+S2ySf8ACn2OKvOtF8w+cPJetNPpV3daLqkJ4zIvKMmm&#xA;/CWJhxdf8l1IxV9Fflz/AM5hQSGGw8+WXosaL+mbFSU8OU1vuw8SYyfZMVfRmh6/omvafHqOjX0G&#xA;oWMv2Li3dZFr3Bp0YdwdxiqPxV2KuxV2KuxV2KuxV2KuxV2KuxV2KvhT/nKKFI/zq1t1rWWOzdq+&#xA;ItIk2+hRir138mJVf8stDK9Aky/StxIp/EYqzWuKuriqZ6Ka+t/sf44qmmKoPV/+OXdf8Ym/VirA&#xA;sVdirO9E/wCOTa/6gxVHYqlWumnof7L+GKpTyxV3LFXcsVdyxV3LFUk8zeTfLPma39HWLFLhgKRz&#xA;j4Zk/wBSRaMPl0xV4j5y/wCcfda04SXflyY6narv9Ukotyo9uiSfRQ+AxVgPl/zT5x8lau1xo97c&#xA;6PqMR4zxCqV4/sTQuOLj/JdTir6P/Lj/AJzAsblorDz3ZizkNF/TFmrNCfeaD4nX3Kcv9UDFX0Ro&#xA;+t6PrWnx6jpF7Df2Mv8Ad3Nu6yIfEVUncdx1GKo3FXYq7FXYq7FXYq7FXYq7FXYq+Hf+crYBH+cd&#xA;+9a+ta2jkeFIglP+ExV6V+SEin8sdHANShuQw8D9alP6jirO+WKu5YqmuhGvr/7H+OKptiqD1f8A&#xA;45d1/wAYm/VirAsVdirO9E/45Nr/AKgxVHYqlHmA0EH+y/hiqT1xV1cVdXFXVxV1cVdXFXVxVIvN&#xA;Hknyx5ng9PV7JJpAKR3K/BOn+rIvxU9jt7Yq8Q85fkFr+mF7nQHOq2Q39A0W6Uf6uyyf7Hf/ACcV&#xA;YV5a84ecvJWqtcaJf3Ok3qNxuIRUKxX9maFwUeng64q+k/y3/wCcvtKvTHYeerUadcGijVrRWe3Y&#xA;9Kyw/FJH815D2UYq+hNK1fStXsYtQ0q8hvrGYViubd1kjb5MpIxVF4q7FXYq7FXYq7FVO4ube3jM&#xA;k8qxRjq7kKPxxVjmoee7CGqWUbXL/wA5+BPx+I/dir5V/NT8uPzN84eeLrWZja3kU/FLedCluscC&#xA;/YR0PxVQHc/FX8MVepeRvLK+WPK1jovq+tJbqxmmAoGkkcu9K9gWoPbFU+rirq4qm/l819f/AGH/&#xA;ABtiqcYqg9X/AOOXdf8AGJv1YqwLFXYqzvRP+OTa/wCoMVR2KpN5iNBb/wCz/hiqS8sVdyxV3LFX&#xA;csVdyxV3LFXcsVdyxV3LFUg80+RvK/meHhq1kskwFI7uP4J0+Ug3+g1HtirxDzf+Q/mTSudzorfp&#xA;eyFT6ajjcqP+MfR/9gan+XFWJeVfPHnTyTqbXGhahcaZcq1Li3/3W5X9maFwUan+Uu2Kvq78jv8A&#xA;nJGHzxqKeXNftY7DzA6FrWeAn6vdFBydQjEtHJxHKlSDQ9OmKvcsVdirsVSzUvMej6fyWecNKv8A&#xA;umP43r4EDYf7KmKsW1Lz9ey1SxiFunaR6O/zp9kfjirHLm9urqT1LmV5n/mck/QK9MVUeWKu5Yq7&#xA;liruWKu5YqnXl01+sf7D/jbFU5xVB6v/AMcu6/4xN+rFWBYq7FWd6J/xybX/AFBiqOxVJPMpoLf/&#xA;AGf/ABriqR8sVdyxV3LFXcsVdyxV3LFXcsVdyxV3LFXcsVdyxVjfm7yD5a8027LqFqq3nGkV/GOM&#xA;yGlB8QpyA/lbbFXzFdW+ueUfNBQO1pq+kXCyQzJ1V4yHjkU+B2Ye2KvvP8sfzR0Xzl5JsNfe4htb&#xA;mT/Rr+3d1TheRrylReR6EfGvficVR+peftMgqlmjXUn832I/vI5H7sVYrqXmvWb+qyTelCf90w1R&#xA;fDc15H6TiqUcsVdyxV3LFXcsVdyxV3LFXcsVdyxVPPLRr9Z/2H/G2Kp3iqD1f/jl3X/GJv1YqwLF&#xA;XYqzvRP+OTa/6gxVHYqkXmg0Ft/s/wDjXFUhrirq4q6uKurirq4q6uKurirq4q6uKurirq4q6uKv&#xA;Nvzd/LS58zxQanpCp+mLZfTkiZgnrxdQOR+Hkh6VpsTv0xVj/wCU/wCVfmbSfMcWta3GLOOyWT6v&#xA;b+okjvJKhjJ/dllChWPetabYq9prirq4q6uKurirq4q6uKurirq4q6uKuriqe+VzX6z/ALD/AI2x&#xA;VPsVQer/APHLuv8AjE36sVYFirsVZ3on/HJtf9QYqiLu7t7S2kubmQRQRKWkdugAxV475p823us3&#xA;5kjd4LOKq28QJBp3ZqftN+GKpL9cu/8Af8n/AATf1xV31y7/AN/yf8E39cVd9cu/9/yf8E39cVd9&#xA;cu/9/wAn/BN/XFXfXLv/AH/J/wAE39cVd9cu/wDf8n/BN/XFXfXLv/f8n/BN/XFXfXLv/f8AJ/wT&#xA;f1xV31y7/wB/yf8ABN/XFXfXLv8A3/J/wTf1xV31y7/3/J/wTf1xV31y7/3/ACf8E39cVd9cu/8A&#xA;f8n/AATf1xV31y7/AN/yf8E39cVd9cu/9/yf8E39cVd9cu/9/wAn/BN/XFXfXLv/AH/J/wAE39cV&#xA;d9cu/wDf8n/BN/XFXfXLv/f8n/BN/XFXfXLv/f8AJ/wTf1xV31y7/wB/yf8ABN/XFXfXLv8A3/J/&#xA;wTf1xV31y7/3/J/wTf1xV31y7/3/ACf8E39cVTby15rv9G1ATF3ntnotxAzE8l8RXow7Yq9lsb61&#xA;vrSO7tZBLBKOSOP1HwI7jFVLV/8Ajl3X/GJv1YqwLFXYqznSJEj0aCSRgkaR8ndjQACpJJOKvMPO&#xA;/nB9ZufqtqxXTIW+HsZWG3M+38oxVi2KuxV2KuxV2KuxV2KuxV2KuxV2KuxV2KuxV2KuxV2KuxV2&#xA;KuxV2KuxV2KuxV2KuxVkvkzzdLod36M5L6bOf3ydSh6c1H6/EYq9V1KWKbRp5YnEkUkJZHU1BBFQ&#xA;QRirBMVdiqn5j1LV73TbfSrFOFoiD6zIWAMjfy9fsj8TirFv8P6p/vsf8Ev9cVbHl3UyPsqPbkMV&#xA;b/w5qf8AKn/BYq7/AA5qf8qf8Firv8Oan/Kn/BYq7/Dmp/yp/wAFirv8Oan/ACp/wWKu/wAOan/K&#xA;n/BYq7/Dmp/yp/wWKu/w5qf8qf8ABYq7/Dmp/wAqf8Firv8ADmp/yp/wWKu/w5qf8qf8Firv8Oan&#xA;/Kn/AAWKu/w5qf8AKn/BYq7/AA5qf8qf8Firv8Oan/Kn/BYq7/Dmp/yp/wAFirv8Oan/ACp/wWKu&#xA;/wAOan/Kn/BYq7/Dmp/yp/wWKtjy3qR68B82/oMVb/w1qPjH/wAEf6Yq7/DWo+Mf/BH+mKu/w1qP&#xA;jH/wR/pirv8ADWo+Mf8AwR/pirv8Naj4x/8ABH+mKu/w1qPjH/wR/pirJvLV5q2nWFxpl2VlspUb&#xA;0aMS0bkdBUfZbwxVfirsVdirsVdirsVdirsVdirsVdirsVdirsVdirsVdirsVdirsVdirsVdirsV&#xA;dirsVdirsVdirsVdirsVdir/AP/Z</xapGImg:image>
    </rdf:li>
   </rdf:Alt>
  </xap:Thumbnails>
 </rdf:Description>

 <rdf:Description rdf:about='uuid:467e8964-3409-11e1-8e65-002608010590'
  xmlns:xapMM='http://ns.adobe.com/xap/1.0/mm/'>
  <xapMM:DocumentID>uuid:e1b915b4-3406-11e1-8e65-002608010590</xapMM:DocumentID>
 </rdf:Description>

 <rdf:Description rdf:about='uuid:467e8964-3409-11e1-8e65-002608010590'
  xmlns:dc='http://purl.org/dc/elements/1.1/'>
  <dc:format>image/svg+xml</dc:format>
 </rdf:Description>

</rdf:RDF>
</x:xmpmeta>
                                                                                                                                                                                                                                                                                                                                                                                                                                                                                                                                                                                                                                                                                                                                                                                                                                                                                                                                                                                                                                                                                                                                                                                                                                                                                                                                                                                                                                                                                                                                                                                                                                                                                                                                                                                                                                                                                                                                                                                                                                                                                                                                <?xpacket end='w'?>
			</metadata>
		<g id="Layer_1" i:layer="yes" i:dimmedPercent="50" i:rgbTrio="#4F008000FFFF">
			<path i:knockout="Off" fill="#959595" d="M0,0v25.92h25.92V0H0z"/>
			<polygon i:knockout="Off" fill="#FFFFFF" points="0.969,1.125 2.862,3.265 23.088,3.265 24.949,1.162 "/>
			<polygon i:knockout="Off" fill="#666666" points="0.969,24.859 2.862,22.719 23.088,22.719 24.949,24.822 "/>
			<polygon i:knockout="Off" fill="#CCCCCC" points="0.977,24.859 2.87,22.719 2.87,3.258 1.009,1.155 "/>
			<polygon i:knockout="Off" fill="#CCCCCC" points="24.975,24.859 23.081,22.719 23.081,3.258 24.943,1.155 "/>
			<linearGradient id="XMLID_2_" gradientUnits="userSpaceOnUse" x1="12.9751" y1="3.2578" x2="12.9751" y2="22.7192">
				<stop  offset="0" style="stop-color:#E5E5E5"/>
				<stop  offset="1" style="stop-color:#9E9E9E"/>
				<a:midPointStop  offset="0" style="stop-color:#E5E5E5"/>
				<a:midPointStop  offset="0.5" style="stop-color:#E5E5E5"/>
				<a:midPointStop  offset="1" style="stop-color:#9E9E9E"/>
			</linearGradient>
			<rect x="2.87" y="3.258" i:knockout="Off" fill="url(#XMLID_2_)" width="20.211" height="19.461"/> 
			<g>
				<path i:isolated="yes" i:knockout="Off" fill="#F2F2F2" enable-background="new    " d="M19.958,19.521l-0.242-8.704
					c-0.167-2.12-1.156-4.602-1.156-4.602c-0.505-1.167-1.673-0.749-1.673-0.749c-1.11,0.547-0.979,1.897-0.979,1.897l0.626,2.837
					l-1.731-4.797c-0.657-1.876-2.154-1.192-2.154-1.192c-1.303,0.8-0.67,2.24-0.67,2.24l1.504,4.31c0,0-1.898-3.799-2.637-5.165
					c-0.739-1.365-1.969-0.746-1.969-0.746C7.391,5.58,8.388,7.293,8.388,7.293l2.741,4.83L7.422,8.871
					C6.356,8.137,5.266,9.01,5.266,9.01c-0.899,1.388,0.246,2.375,0.246,2.375l3.654,2.916l1.087,1.825l-2.915-1.553
					c-1.617-0.62-2.053,0.731-2.053,0.731c-0.663,1.587,1.037,2.126,1.037,2.126l6.91,3.514l0.639,1.033"/>
				<path i:knockout="Off" d="M12.44,3.757c-0.791,0.482-1.036,1.151-1.076,1.756c-0.005-0.009-0.079-0.155-0.079-0.155
					c-0.796-1.47-2.171-1.188-2.634-0.955C8.141,4.655,7.79,5.047,7.642,5.538C7.583,5.732,7.56,5.928,7.56,6.116
					c0,0.722,0.347,1.344,0.396,1.428c0,0,0.641,1.13,1.277,2.25c-0.71-0.623-1.481-1.299-1.481-1.299
					C6.621,7.712,5.431,8.237,4.953,8.62C4.911,8.653,4.875,8.693,4.846,8.738c-0.309,0.476-0.425,0.929-0.425,1.338
					c0,0.782,0.429,1.399,0.764,1.688c0,0,3.461,2.762,3.598,2.871c0.01,0.018,0.091,0.152,0.124,0.208
					c-0.662-0.354-1.334-0.711-1.334-0.711c-0.722-0.281-1.316-0.288-1.82-0.046c-0.689,0.33-0.919,0.991-0.943,1.065
					c-0.12,0.284-0.18,0.567-0.18,0.843c0,0.261,0.055,0.515,0.166,0.754c0.381,0.823,1.275,1.127,1.376,1.159
					c0,0,6.469,3.296,6.71,3.419c0.115,0.187,0.565,0.914,0.565,0.914c0.145,0.235,0.453,0.308,0.688,0.163
					c0.235-0.146,0.308-0.454,0.163-0.688l-0.639-1.033c-0.048-0.078-0.117-0.142-0.199-0.183l-6.91-3.514
					c-0.232-0.083-0.684-0.3-0.849-0.661c-0.105-0.23-0.09-0.501,0.046-0.827c0.014-0.036,0.133-0.368,0.446-0.514
					c0.247-0.113,0.572-0.095,0.966,0.057l2.859,1.527c0.198,0.105,0.442,0.065,0.597-0.097c0.091-0.095,0.138-0.22,0.138-0.345
					c0-0.088-0.023-0.177-0.07-0.256l-1.087-1.825c-0.031-0.052-0.071-0.098-0.118-0.135l-3.654-2.916
					c-0.045-0.041-0.4-0.38-0.4-0.911c0-0.213,0.082-0.465,0.239-0.733c0.168-0.117,0.816-0.521,1.475-0.067l3.661,3.216
					c0.183,0.161,0.456,0.166,0.646,0.012c0.189-0.154,0.239-0.422,0.119-0.634l-2.741-4.83C8.713,6.855,8.464,6.269,8.6,5.824
					c0.068-0.222,0.23-0.394,0.496-0.524c0.19-0.09,0.846-0.319,1.309,0.536l2.629,5.15c0.12,0.234,0.401,0.337,0.643,0.234
					c0.189-0.081,0.305-0.264,0.305-0.459c0-0.054-0.009-0.109-0.028-0.164l-1.504-4.31c-0.028-0.067-0.127-0.321-0.127-0.627
					c0-0.335,0.121-0.733,0.583-1.02c0.018,0,0.384-0.13,0.733,0.023c0.293,0.129,0.525,0.433,0.691,0.906l1.732,4.801
					c0.09,0.248,0.356,0.384,0.609,0.311c0.254-0.073,0.406-0.331,0.35-0.588l-0.626-2.837c0.006,0.021-0.067-0.957,0.712-1.341
					c0.116-0.034,0.703-0.171,0.993,0.499c0.004,0.01,0.958,2.425,1.117,4.442l0.24,8.679c0.008,0.276,0.238,0.494,0.514,0.486
					c0.276-0.008,0.494-0.238,0.486-0.514l-0.242-8.704c-0.173-2.196-1.15-4.669-1.191-4.773c-0.553-1.277-1.75-1.234-2.307-1.035
					c-0.6,0.294-0.929,0.744-1.107,1.177c-0.106-0.295-0.338-0.938-0.338-0.938c-0.263-0.749-0.684-1.252-1.25-1.494
					C13.245,3.409,12.52,3.72,12.44,3.757z"/>
			</g>
			<g>
				<path i:isolated="yes" i:knockout="Off" fill="#F2F2F2" enable-background="new    " d="M19.958,19.521l-0.242-8.704
					c-0.167-2.12-1.156-4.602-1.156-4.602c-0.505-1.167-1.673-0.749-1.673-0.749c-1.11,0.547-0.979,1.897-0.979,1.897l0.626,2.837
					l-1.731-4.797c-0.657-1.876-2.154-1.192-2.154-1.192c-1.303,0.8-0.67,2.24-0.67,2.24l1.504,4.31c0,0-1.898-3.799-2.637-5.165
					c-0.739-1.365-1.969-0.746-1.969-0.746C7.391,5.58,8.388,7.293,8.388,7.293l2.741,4.83L7.422,8.871
					C6.356,8.137,5.266,9.01,5.266,9.01c-0.899,1.388,0.246,2.375,0.246,2.375l3.654,2.916l1.087,1.825l-2.915-1.553
					c-1.617-0.62-2.053,0.731-2.053,0.731c-0.663,1.587,1.037,2.126,1.037,2.126l6.91,3.514l0.639,1.033"/>
				<path i:knockout="Off" d="M12.543,3.984c-0.75,0.459-0.97,1.122-0.97,1.693c0,0.347,0.081,0.661,0.175,0.875
					c0,0,0.2,0.574,0.292,0.836c-0.455-0.891-0.976-1.911-0.976-1.911c-0.676-1.249-1.801-1.103-2.301-0.851
					C8.308,4.851,8.011,5.182,7.881,5.61c-0.05,0.167-0.071,0.337-0.071,0.502c0,0.677,0.343,1.276,0.361,1.307
					c0,0,1.223,2.155,2.009,3.54c-1.09-0.956-2.594-2.275-2.594-2.275C6.6,8.001,5.537,8.473,5.109,8.814
					C4.802,9.28,4.688,9.716,4.688,10.102c0,0.692,0.37,1.222,0.661,1.473l3.662,2.922c0,0,0.295,0.506,0.582,0.994
					c-0.837-0.445-2.136-1.138-2.136-1.138c-0.627-0.242-1.155-0.252-1.595-0.041c-0.605,0.289-0.805,0.891-0.813,0.916
					c-0.111,0.265-0.167,0.522-0.167,0.77c0,0.226,0.047,0.442,0.141,0.646c0.342,0.738,1.189,1.014,1.225,1.025
					c0,0,6.688,3.404,6.81,3.467c0.065,0.105,0.602,0.974,0.602,0.974c0.073,0.117,0.227,0.153,0.345,0.081
					c0.117-0.073,0.153-0.227,0.081-0.345l-0.639-1.033c-0.024-0.039-0.059-0.07-0.1-0.091l-6.91-3.514
					c-0.044-0.018-0.714-0.239-0.961-0.777c-0.135-0.294-0.121-0.64,0.042-1.029c0.008-0.022,0.155-0.448,0.565-0.642
					c0.311-0.146,0.704-0.131,1.167,0.047l2.887,1.54c0.099,0.053,0.222,0.033,0.299-0.048s0.091-0.204,0.034-0.301l-1.087-1.825
					l-3.713-2.983c-0.032-0.028-0.958-0.862-0.192-2.044C5.46,9.175,6.384,8.459,7.28,9.077l3.684,3.234
					c0.092,0.081,0.228,0.083,0.323,0.006s0.12-0.211,0.06-0.317l-2.741-4.83C8.6,7.16,8.165,6.396,8.36,5.752
					C8.45,5.459,8.654,5.238,8.986,5.075c0.105-0.052,1.038-0.469,1.639,0.641l2.633,5.158c0.06,0.117,0.201,0.169,0.321,0.117
					c0.095-0.041,0.152-0.132,0.152-0.229c0-0.027-0.004-0.055-0.014-0.082l-1.504-4.31c-0.014-0.033-0.14-0.334-0.14-0.712
					c0-0.4,0.142-0.886,0.705-1.232c0.007,0,0.485-0.196,0.956,0.007c0.362,0.156,0.641,0.511,0.832,1.054l1.732,4.799
					c0.045,0.124,0.179,0.192,0.305,0.155c0.127-0.037,0.203-0.166,0.175-0.294l-0.626-2.837c0-0.018-0.092-1.158,0.846-1.62
					c0.07-0.022,0.937-0.292,1.333,0.624c0.007,0.018,0.975,2.465,1.137,4.522l0.241,8.691c0.004,0.138,0.119,0.247,0.257,0.243
					s0.247-0.119,0.243-0.257l-0.242-8.704c-0.169-2.146-1.133-4.584-1.174-4.688c-0.476-1.1-1.509-1.063-1.989-0.892
					c-0.939,0.461-1.11,1.353-1.137,1.83c-0.291-0.806-0.629-1.742-0.629-1.742c-0.239-0.682-0.613-1.136-1.112-1.349
					C13.234,3.676,12.571,3.972,12.543,3.984z"/>
			</g>
		</g>
	</svg>
