<?xml version="1.0" encoding="utf-8"?>
<!-- Generator: Adobe Illustrator 11 Build 196, SVG Export Plug-In . SVG Version: 6.0.0 Build 78)  -->
<!DOCTYPE svg PUBLIC "-//W3C//DTD SVG 1.0//EN"    "http://www.w3.org/TR/2001/REC-SVG-20010904/DTD/svg10.dtd" [
	<!ENTITY ns_flows "http://ns.adobe.com/Flows/1.0/">
	<!ENTITY ns_extend "http://ns.adobe.com/Extensibility/1.0/">
	<!ENTITY ns_ai "http://ns.adobe.com/AdobeIllustrator/10.0/">
	<!ENTITY ns_graphs "http://ns.adobe.com/Graphs/1.0/">
	<!ENTITY ns_vars "http://ns.adobe.com/Variables/1.0/">
	<!ENTITY ns_imrep "http://ns.adobe.com/ImageReplacement/1.0/">
	<!ENTITY ns_sfw "http://ns.adobe.com/SaveForWeb/1.0/">
	<!ENTITY ns_custom "http://ns.adobe.com/GenericCustomNamespace/1.0/">
	<!ENTITY ns_adobe_xpath "http://ns.adobe.com/XPath/1.0/">
	<!ENTITY ns_svg "http://www.w3.org/2000/svg">
	<!ENTITY ns_xlink "http://www.w3.org/1999/xlink">
]>
<svg 
	 xmlns:x="&ns_extend;" xmlns:i="&ns_ai;" xmlns:graph="&ns_graphs;" i:viewOrigin="0 25.9199" i:rulerOrigin="0 0" i:pageBounds="0 25.9199 25.9199 0"
	 xmlns="&ns_svg;" xmlns:xlink="&ns_xlink;" xmlns:a="http://ns.adobe.com/AdobeSVGViewerExtensions/3.0/"
	 width="25.92" height="25.92" viewBox="0 0 25.92 25.92" overflow="visible" enable-background="new 0 0 25.92 25.92"
	 xml:space="preserve">
	<metadata>
		<variableSets  xmlns="&ns_vars;">
			<variableSet  varSetName="binding1" locked="none">
				<variables></variables>
				<v:sampleDataSets  xmlns="&ns_custom;" xmlns:v="&ns_vars;"></v:sampleDataSets>
			</variableSet>
		</variableSets>
		<sfw  xmlns="&ns_sfw;">
			<slices></slices>
			<sliceSourceBounds  y="0" x="0" width="25.92" height="25.92" bottomLeftOrigin="true"></sliceSourceBounds>
		</sfw>
<?xpacket begin='﻿' id='W5M0MpCehiHzreSzNTczkc9d'?><x:xmpmeta xmlns:x='adobe:ns:meta/' x:xmptk='XMP toolkit 3.0-29, framework 1.6'>
<rdf:RDF xmlns:rdf='http://www.w3.org/1999/02/22-rdf-syntax-ns#' xmlns:iX='http://ns.adobe.com/iX/1.0/'>

 <rdf:Description rdf:about='uuid:460824e0-3409-11e1-8e65-002608010590'
  xmlns:pdf='http://ns.adobe.com/pdf/1.3/'>
  <pdf:Producer>Adobe PDF library 6.66</pdf:Producer>
 </rdf:Description>

 <rdf:Description rdf:about='uuid:460824e0-3409-11e1-8e65-002608010590'
  xmlns:tiff='http://ns.adobe.com/tiff/1.0/'>
 </rdf:Description>

 <rdf:Description rdf:about='uuid:460824e0-3409-11e1-8e65-002608010590'
  xmlns:xap='http://ns.adobe.com/xap/1.0/'
  xmlns:xapGImg='http://ns.adobe.com/xap/1.0/g/img/'>
  <xap:CreateDate>2011-12-31T15:30:03-08:00</xap:CreateDate>
  <xap:ModifyDate>2011-12-31T23:45:52Z</xap:ModifyDate>
  <xap:CreatorTool>Illustrator</xap:CreatorTool>
  <xap:MetadataDate>2011-12-31T15:30:03-08:00</xap:MetadataDate>
  <xap:Thumbnails>
   <rdf:Alt>
    <rdf:li rdf:parseType='Resource'>
     <xapGImg:format>JPEG</xapGImg:format>
     <xapGImg:width>256</xapGImg:width>
     <xapGImg:height>256</xapGImg:height>
     <xapGImg:image>/9j/4AAQSkZJRgABAgEASABIAAD/7QAsUGhvdG9zaG9wIDMuMAA4QklNA+0AAAAAABAASAAAAAEA&#xA;AQBIAAAAAQAB/+4ADkFkb2JlAGTAAAAAAf/bAIQABgQEBAUEBgUFBgkGBQYJCwgGBggLDAoKCwoK&#xA;DBAMDAwMDAwQDA4PEA8ODBMTFBQTExwbGxscHx8fHx8fHx8fHwEHBwcNDA0YEBAYGhURFRofHx8f&#xA;Hx8fHx8fHx8fHx8fHx8fHx8fHx8fHx8fHx8fHx8fHx8fHx8fHx8fHx8fHx8f/8AAEQgBAAEAAwER&#xA;AAIRAQMRAf/EAaIAAAAHAQEBAQEAAAAAAAAAAAQFAwIGAQAHCAkKCwEAAgIDAQEBAQEAAAAAAAAA&#xA;AQACAwQFBgcICQoLEAACAQMDAgQCBgcDBAIGAnMBAgMRBAAFIRIxQVEGE2EicYEUMpGhBxWxQiPB&#xA;UtHhMxZi8CRygvElQzRTkqKyY3PCNUQnk6OzNhdUZHTD0uIIJoMJChgZhJRFRqS0VtNVKBry4/PE&#xA;1OT0ZXWFlaW1xdXl9WZ2hpamtsbW5vY3R1dnd4eXp7fH1+f3OEhYaHiImKi4yNjo+Ck5SVlpeYmZ&#xA;qbnJ2en5KjpKWmp6ipqqusra6voRAAICAQIDBQUEBQYECAMDbQEAAhEDBCESMUEFURNhIgZxgZEy&#xA;obHwFMHR4SNCFVJicvEzJDRDghaSUyWiY7LCB3PSNeJEgxdUkwgJChgZJjZFGidkdFU38qOzwygp&#xA;0+PzhJSktMTU5PRldYWVpbXF1eX1RlZmdoaWprbG1ub2R1dnd4eXp7fH1+f3OEhYaHiImKi4yNjo&#xA;+DlJWWl5iZmpucnZ6fkqOkpaanqKmqq6ytrq+v/aAAwDAQACEQMRAD8APMVdirsVdirsVdirsVdi&#xA;rsVdirsVdirsVdirsVdirsVdirsVdirsVdirsVdirsVdirsVdirsVdirsVdirsVZx5T8m+XtYsom&#xA;uZrmK7cFuKPGEYA0+GsZP0VxVkH/ACqby5/y03n/AAcX/VPFXf8AKpvLn/LTef8ABxf9U8Vd/wAq&#xA;m8uf8tN5/wAHF/1TxV3/ACqby5/y03n/AAcX/VPFXf8AKpvLn/LTef8ABxf9U8Vd/wAqm8uf8tN5&#xA;/wAHF/1TxV3/ACqby5/y03n/AAcX/VPFXf8AKpvLn/LTef8ABxf9U8Vd/wAqm8uf8tN5/wAHF/1T&#xA;xV3/ACqby5/y03n/AAcX/VPFVNvyl0Op43dyB2BMZP8AxAYq1/yqXRf+Wy5/5J/804q7/lUui/8A&#xA;LZc/8k/+acVd/wAql0X/AJbLn/kn/wA04q7/AJVLov8Ay2XP/JP/AJpxV3/KpdF/5bLn/kn/AM04&#xA;q7/lUui/8tlz/wAk/wDmnFXf8ql0X/lsuf8Akn/zTirv+VS6L/y2XP8AyT/5pxV3/KpdF/5bLn/k&#xA;n/zTirv+VS6L/wAtlz/yT/5pxV3/ACqXRf8Alsuf+Sf/ADTirv8AlUui/wDLZc/8k/8AmnFXf8ql&#xA;0X/lsuf+Sf8AzTirv+VS6L/y2XP/ACT/AOacVd/yqXRf+Wy5/wCSf/NOKu/5VLov/LZc/wDJP/mn&#xA;FXf8ql0X/lsuf+Sf/NOKpJ5n8kaJo9lI8NzPNdKvIIxTiB4tRfwxVg+KuxVnfl13j0u1dCVdQSrD&#xA;qCGOKvQNG1ZL6Hi1FuUH7xfEfzDFUyxV2KuxV2KuxV2KuxV2KuxV2KuxV2KuxV2KuxV2KuxV2Kux&#xA;V2KuxV2KuxV2KuxV2Kpfq+qx2EG1GuH/ALtP+Nj7YqwDzBLJLpt3JIxZ2UlmPc1xVgOKuxVnOgf8&#xA;ci2/1T/xI4qmlvPLbzLNE3GRDUHFWaaZqUV/b+ou0i7Sx+B/ocVRmKuxV2KuxV2KuxV2KuxV2Kux&#xA;V2KuxV2KuxV2KuxV2KuxV2KuxV2KuxV2KuxVCalqMNjbmV92O0cfdj/TxxVhd1czXM7TTNydvuA8&#xA;BiqWa3/xybr/AFDirBMVdirOdA/45Ft/qn/iRxVMMVR2lGkj/IfrxVMq4q6uKurirq4q6uKurirq&#xA;4q6uKurirq4q0WoKnYYqg5dURTSNefv0GKqQ1WWu6Cn04qiYNQilIU/A56A9PvxVE1xV1cVdXFXV&#xA;xV1cVdXFXVxV1cVdXFXVxVL9WNfS/wBl/DFUvxVA63/xybr/AFDirBMVdirOdA/45Ft/qn/iRxVM&#xA;MVRmmmkj/L+OKo/liruWKu5Yq7liruWKu5Yqg59RoeMQr/lH+GKoY3lyT/eH6KDFV8eoTqfiIce+&#xA;x/DFUfDcJKvJT8x3GKoO/uCW9JT8I+17nFV2n6VLdDmx9OHpy7k+2Kpg3l+24/DI4bxNCPuoMVSm&#xA;8sprSTjJup+y46HFUTY3RdfTc1Zeh8RiqK5Yq7liruWKu5Yq7liruWKu5Yq7liruWKoLUzX0/wDZ&#xA;fwxVA4qgdb/45N1/qHFWCYq7FWc6B/xyLb/VP/EjiqYYqirA0kb5Yqjq4q6uKurirq4q6uKoW+mI&#xA;URj9rc/LFWtN05rtySeMSfaYdSfAYqnkemWMa8RCp92HI/jiqDv9FiZDJbDjIN+A6H5eGKpNDK0U&#xA;gYfJh7Yq1vLN7u36zirLY41jjWNBRVAAHyxVdiqHv7UXNq8dPiAqh/yh0xVjEMhjlVvA7/LviqZS&#xA;TKicmO368VQEt1LIevFfAYqpVcb1PzxVXhvJUIDHkvevXFUesgZQymoPTFW64q6uKurirq4qg9QN&#xA;fT+n+GKoPFUDrf8Axybr/UOKsExV2Ks50D/jkW3+qf8AiRxVMMVRFkaO3yxVGcsVdyxV3LFXcsVd&#xA;yxVA3ZrN9AxVPdEAFgtOpZq/OuKo/FXYqx3WbT0bn1FH7uXcezdxiqARirqw6qQR9GKswR1dFdd1&#xA;YAg+xxVvFXYqxjVbf0b2QAUV/jX5H+3FUO8rOqg9FFMVTfR9MjMYuZl5Fv7tD0A8TiqcFVI4kAr4&#xA;HpiqQazp6QETRCkbmjKOgPtiqGs5KVQ/MYqiuWKu5Yq7liruWKoW+NeH0/wxVC4qgdb/AOOTdf6h&#xA;xVgmKuxVnOgf8ci2/wBU/wDEjiqYYqrWpo5+WKorliruWKu5Yq7liruWKoa6G6t9GKpl5fuRSS3J&#xA;3+2n6jiqc4q7FUNqFqLm1eMfbHxJ/rDFWLEEGh64qyLRLj1LPgftRHj9B3GKphirsVSrX7flAk4G&#xA;8Zo3yb+3FUjUVYDxNMVZgqhVCrsqgAD2GKt4qo3sHr2skXcj4fmNxirFY2KOG8DviqO5Yq7liruW&#xA;Ku5Yqh7s14fT/DFUPiqB1v8A45N1/qHFWCYq7FWc6B/xyLb/AFT/AMSOKphiqpbmjn5YqiK4q6uK&#xA;uriruWKu5YqtcBlIxVQhleCZZE2dDUYqyu3nSeFJU+y4r8vEYqqYq7FWPa3aelc+qo+CXf5N3xV2&#xA;h3Hp3npk/DKKfSNxirIcVdiqy4hE0DxHo4IxViLKyOVOzKaH5jFWXQSerDHJ/Oob7xiq/FXYqxfU&#xA;4PRvZVGyk8l+Tb4q6J6oPuxVdXFXVxV1cVUbg14/TiqjiqB1v/jk3X+ocVYJirsVZzoH/HItv9U/&#xA;8SOKphiq+I0f6MVVeWKu5YqpNKx6bDFWlSSQ0VS59gTirmSSM0ZSh9wRiq5ZT0b78ValFfiH04qm&#xA;WhXnCU2zn4ZN09m/txVPcVdiqHv7UXNs0X7XVD4MOmKsXVnikDDZ0NfkQcVZdDIssSSL9lwGH04q&#xA;uxV2Ksc1q39K8LgfDKOQ+fQ4qmuiy87BB3QlT+v+OKo7FXYqkvmGH4oph3BRvo3H8cVSuJqAjFVT&#xA;liruWKu5YqpzGtMVU8VQOt/8cm6/1DirBMVdirOdA/45Ft/qn/iRxVMMVbU0b6Diq+uKrWO1MVRu&#xA;kWKXM7GQVijFSPEnoMVZEkaRqFRQqjoAKDFWpIo5UKSKHU9iK4qx/UtKe2Jkiq0B+9fniqADdu2K&#xA;uBKsGU0INQcVZTYXYurZZP2xs48GGKojFXYqx/XLT0rgTKPgl3Psw6/fiqO0G452piJ3iO3+q24/&#xA;jiqZYq7FUv1y39Sz9QD4ojX6DscVQ3l6XeaI+zAfgf4YqnOKuxVA6zFzsHPdCGH30/UcVY4pocVX&#xA;1xV1cVdXFVrmtMVW4qgdb/45N1/qHFWCYq7FWc6B/wAci2/1T/xI4qmGKtVow+R/hirdcVdWuKp7&#xA;5eI9CUftchX5U2xVNcVdiriAQQRUHYg4qkep6OUrNbiqdWj8Pce2KpTiqO0i8+r3IVjSKX4W9j2O&#xA;KskxV2KqF7bC5tniPUiqHwYdMVSPSJjBfhG2D1jYe/b8cVZHirsVadFdGRt1YEEexxVJNKtbqDUS&#xA;rIwQBlZ6EAjtv88VTzFXYqp3SepbSp/MjD8MVYjirq4q6uKurirq1xV2KoHW/wDjk3X+ocVYJirs&#xA;VZzoH/HItv8AVP8AxI4qmGKrHNGHyP8ADFWuWKtq2+Ko/TL36rcVb+6fZ/4H6MVZKjo6h0IZTuCO&#xA;mKt4q7FXYqlOp6OHrNbCj9WjHQ+498VSMggkEUI6jFWSaRefWLbixrLF8Le47HFUdirsVS250f1b&#xA;1Z0cIhIZx3qPD54qmWKuxV2KuxV2KuxV2KsOYUYjwOKqXLFXcsVdyxVcprXFV2KoHW/+OTdf6hxV&#xA;gmKuxVnOgf8AHItv9U/8SOKphiqlMaMvyP8ADFVnLFXcsVVUkB2PXFUdYajNaNQfFEftRn9YxVkV&#xA;tdQ3MYkiao7juD4HFVXFXYq7FUv1LSkuQZYqLP8Ag3z98VSeznksrwFwVoeMqnrQ4qygEEAjcHcH&#xA;FXYq7FXYq7FXYq7FXYq7FXYqw+UUlceDEfjiqF5Yq7liruWKqkRrXFVTFUDrf/HJuv8AUOKsExV2&#xA;Ks50D/jkW3+qf+JHFUwxVQuDQr9P8MVU+WKu5Yq7liqpHPTZunjiqLtrqW3kEkTUPfwI98VZHYal&#xA;DdrT7Mo+0h/WMVReKuxV2KqM9lazsGljDMNgdx+rFVYAAUGwHQYq7FXYq7FXYq7FXYq7FXYq7FWI&#xA;3ApPIPB2/XiqALb4q7liruWKqtua8voxVWxVB6wAdLuq/wC+2/AYqwLFXYqznQP+ORbf6p/4kcVT&#xA;DFUPdmhT6f4YqocsVdyxV3LFXcsVXxzlD4r4YqjIpdxJG1CNwRsQcVT7TtYWWkVwQsvRX6Bv6HFU&#xA;0xV2KuxV2KuxV2KuxV2KuxV2KuxV2KuxViV2CLqYHqHb9ZxVLGb4j88Va5Yq7liqvamvL6P44qiM&#xA;VQer/wDHLuv+MTfqxVgWKuxVnOgf8ci2/wBU/wDEjiqYYqhb00KfT/DFUNyxV3LFVSGFpT4KOpxV&#xA;FLbxL2r7nFWzBEf2fu2xVTMDxnlEfmp74qqxyhtiOLjqpxVOtI1N+a20xqp2jY9QewxVO8VdirsV&#xA;dirsVdirsVdirsVdirsVdirE77/e2f8A4yP/AMSOKpPIfjb5nFWuWKu5YqibI15/R/HFUViqD1f/&#xA;AI5d1/xib9WKsCxV2Ks50D/jkW3+qf8AiRxVMMVQeoGhj/2X8MVQnLFW0BZgo6k0xVNoYj8EUYqT&#xA;RVHiTirI7PR7aFB6qiWU/aLbj6BiqtJptjIKGFR7qOJ/CmKpVeaFNHVrc+ov8h+0P64qlbx0ajrR&#xA;lPQ7EHFXAkGo2I6HFWUabeC6tgxP7xfhkHv4/TiqKxV2KuxV2KuxV2KuxV2KuxV2KuxViuof73T/&#xA;AOu368VSKY0lcf5R/Xiq3liruWKovTzX1Po/jiqMxVB6v/xy7r/jE36sVYFirsVZzoH/AByLb/VP&#xA;/EjiqYYqgdSNDH/sv4YqguWKq9jQ3C+1T+GKsj0VFe/Un9kFh8+n8cVZHirsVdiqhdWNtcikqfF2&#xA;cbMPpxVJbvRbmGrRfvY/b7Q+jFVHTLpre7Xrxc8HX5/0xVk+KuxV2KuxV2KuxV2KuxV2KuxV2KsW&#xA;1P8A3vn/ANbFWP3BpPJ/rH9eKqfLFXcsVRummvqf7H+OKo7FUHq//HLuv+MTfqxVgWKuxVnOgf8A&#xA;HItv9U/8SOKphiqX6qael/sv4YqgOWKqltMI50c9Ad/kdsVZDZ3LW9wky78eo8QeuKsoguIp4xJE&#xA;3JT949jiqpirsVdirsVUmtLZ5BK0SmQdGpvtiqrirsVdirsVdirsVdirsVdirsVdirGNV/46E3zH&#xA;6hirGrs0uZB/lHFVLliruWKo/SjX1f8AY/xxVMMVQer/APHLuv8AjE36sVYFirsVZ3on/HJtv9T+&#xA;OKo7FUt1g09H/ZfwxVLq4q6uKo+y1EKBFMfhGyv4exxVN4LiSMiSGQrXup2OKptaa/0W5X/nov8A&#xA;EYqm8U0UqB42Dqe4xVdirsVdirsVdirsVdirsVdirsVdirsVdirsVYzrAA1Gb/Y/8RGKsXvjS7kH&#xA;v/DFVCuKuriqY6Oa+t/sf44qmWKoPV/+OXdf8Ym/VirAsVdirO9E/wCOTa/6gxVHYqlmtGno/wCy&#xA;/hiqV1xV1cVdXFVSG5mhNY2I8R2+7FUyt9XjaizDgf5huMVTO3uZIyJIJKV6Mp2OKpxaa8DRblaf&#xA;8WL/ABGKptHLHKgeNg6nuDXFV2KuxV2KuxV2KuxV2KuxV2KuxV2KuxVjWsimoye4X/iIxVimo7Xs&#xA;o9x+oYqhq4q6uKpnopr63+x/jiqaYqg9X/45d1/xib9WKsCxV2Ks70T/AI5Nr/qDFUdiqVa6aeh/&#xA;sv4YqlPLFXcsVdyxV3LFXcsVVYLueA1jcjxHY/RiqaWuswvRZx6bfzD7P9mKprb3UsREkElK91NQ&#xA;f4HFU4tNeU0W5Xif9+L0+kYqmsckcih42DKehBqMVXYq7FXYq7FXYq7FXYq7FXYq7FWOa2Kag3uq&#xA;n8MVYhqppfyf7H/iIxVCcsVdyxVNdCNfX/2P8cVTbFUHq/8Axy7r/jE36sVYFirsVZ3on/HJtf8A&#xA;UGKo7FUo8wGgg/2X8MVSeuKurirq4q6uKurirq4q6uKq1veXFuaxOQO69QfoxVN7XW4JKLOPSf8A&#xA;m/ZP9MVTa3upYSJIJKV7g1B/gcVTi015GotyvA/zr0+kYqmqSJIoZGDKehBqMVbxV2KuxV2KuxV2&#xA;KqVxdW1tGZLiVYox+05AH44qxzUfPdjFVLKJrh/9+N8Cfj8R/DFUpk8yQ3R9a5+GalCqrtt4f24q&#xA;kV5c/WLh5aUDdB7AUxVRrirq4qm/l819f/Yf8bYqnGKoPV/+OXdf8Ym/VirAsVdirO9E/wCOTa/6&#xA;gxVHYqk3mI0Fv/s/4YqkvLFXcsVdyxV3LFXcsVdyxV3LFXcsVdyxVXtr+5tjWJyB3U7qfoxVObTX&#xA;LaWizfun8T9k/T2xVN7a7mhIeCQiu+24P8MVT3TdXFy/pSqFlp8JHRqYqmOKuxV2KpXqXmXR9Pqs&#xA;04eUf7pi+N6+BpsPpOKsW1Hz7fTVSyjFsnZ2+N/x+EfjirHLi8ubmQyXErSyH9pySfxxVS5Yq7li&#xA;ruWKu5Yq7liqdeXTX6x/sP8AjbFU5xVB6v8A8cu6/wCMTfqxVgWKuxVneif8cm1/1BiqOxVJPMpo&#xA;Lf8A2f8AxriqR8sVdyxV3LFXcsVdyxV3LFXcsVdyxV3LFXcsVdyxVE2mo3Nqw9Nvg7xndTirK7W5&#xA;EiR3ELUrRlPcEf0xVlUOp2pshdTSJCg2kLkKA304qkOpef8AToKpZRtdSfzn4I/x+I/dirFdS806&#xA;zqFVlmMcJ/3TF8C09+5+k4qlPLFXcsVdyxV3LFXcsVdyxV3LFXcsVTzy0a/Wf9h/xtiqd4qg9X/4&#xA;5d1/xib9WKsCxV2Ks70T/jk2v+oMVR2KpF5oNBbf7P8A41xVIa4q6uKurirq4q6uKurirq4q6uKu&#xA;rirq4q6uKuriqaaLqyWpaKcn0X3BG/E/0OKonWNZtZrU29uxkLkcmoQAAa96eGKpFXFXVxV1cVdX&#xA;FXVxV1cVdXFXVxV1cVdXFU98rmv1n/Yf8bYqn2KoPV/+OXdf8Ym/VirAsVdirO9E/wCOTa/6gxVE&#xA;Xd3b2ltJc3MgigiUtI7dABirx3zT5tvdZvzJG7wWcVVt4gSDTuzU/ab8MVSX65d/7/k/4Jv64q76&#xA;5d/7/k/4Jv64q765d/7/AJP+Cb+uKu+uXf8Av+T/AIJv64q765d/7/k/4Jv64q765d/7/k/4Jv64&#xA;q765d/7/AJP+Cb+uKu+uXf8Av+T/AIJv64q765d/7/k/4Jv64q765d/7/k/4Jv64q765d/7/AJP+&#xA;Cb+uKu+uXf8Av+T/AIJv64q765d/7/k/4Jv64q765d/7/k/4Jv64q765d/7/AJP+Cb+uKu+uXf8A&#xA;v+T/AIJv64q765d/7/k/4Jv64q765d/7/k/4Jv64q765d/7/AJP+Cb+uKu+uXf8Av+T/AIJv64q7&#xA;65d/7/k/4Jv64q765d/7/k/4Jv64q765d/7/AJP+Cb+uKu+uXf8Av+T/AIJv64qm3lrzXf6NqAmL&#xA;vPbPRbiBmJ5L4ivRh2xV7LY31rfWkd3ayCWCUckcfqPgR3GKqWr/APHLuv8AjE36sVYFirsVZzpE&#xA;iR6NBJIwSNI+TuxoABUkknFXmHnfzg+s3P1W1YrpkLfD2MrDbmfb+UYqxbFXYq7FXYq7FXYq7FXY&#xA;q7FXYq7FXYq7FXYq7FXYq7FXYq7FXYq7FXYq7FXYq7FXYqyXyZ5ul0O79Gcl9NnP75OpQ9Oaj9fi&#xA;MVeq6lLFNo08sTiSKSEsjqaggioIIxVgmKuxVT8x6lq97ptvpVinC0RB9ZkLAGRv5ev2R+JxVi3+&#xA;H9U/32P+CX+uKtjy7qZH2VHtyGKt/wCHNT/lT/gsVd/hzU/5U/4LFXf4c1P+VP8AgsVd/hzU/wCV&#xA;P+CxV3+HNT/lT/gsVd/hzU/5U/4LFXf4c1P+VP8AgsVd/hzU/wCVP+CxV3+HNT/lT/gsVd/hzU/5&#xA;U/4LFXf4c1P+VP8AgsVd/hzU/wCVP+CxV3+HNT/lT/gsVd/hzU/5U/4LFXf4c1P+VP8AgsVd/hzU&#xA;/wCVP+CxV3+HNT/lT/gsVd/hzU/5U/4LFXf4c1P+VP8AgsVbHlvUj14D5t/QYq3/AIa1Hxj/AOCP&#xA;9MVd/hrUfGP/AII/0xV3+GtR8Y/+CP8ATFXf4a1Hxj/4I/0xV3+GtR8Y/wDgj/TFXf4a1Hxj/wCC&#xA;P9MVZN5avNW06wuNMuystlKjejRiWjcjoKj7LeGKr8VdirsVdirsVdirsVdirsVdirsVdirsVdir&#xA;sVdirsVdirsVdirsVdirsVdirsVdirsVdirsVdirsVdirsVf/9k=</xapGImg:image>
    </rdf:li>
   </rdf:Alt>
  </xap:Thumbnails>
 </rdf:Description>

 <rdf:Description rdf:about='uuid:460824e0-3409-11e1-8e65-002608010590'
  xmlns:xapMM='http://ns.adobe.com/xap/1.0/mm/'>
  <xapMM:DocumentID>uuid:e1b915b4-3406-11e1-8e65-002608010590</xapMM:DocumentID>
 </rdf:Description>

 <rdf:Description rdf:about='uuid:460824e0-3409-11e1-8e65-002608010590'
  xmlns:dc='http://purl.org/dc/elements/1.1/'>
  <dc:format>image/svg+xml</dc:format>
 </rdf:Description>

</rdf:RDF>
</x:xmpmeta>
                                                                                                                                                                                                                                                                                                                                                                                                                                                                                                                                                                                                                                                                                                                                                                                                                                                                                                                                                                                                                                                                                                                                                                                                                                                                                                                                                                                                                                                                                                                                                                                                                                                                                                                                                                                                                                                                                                                                                                                                                                                                                                                                <?xpacket end='w'?>
			</metadata>
		<g id="Layer_1" i:layer="yes" i:dimmedPercent="50" i:rgbTrio="#4F008000FFFF">
			<path i:knockout="Off" fill="#959595" d="M0,0v25.92h25.92V0H0z"/>
			<polygon i:knockout="Off" fill="#FFFFFF" points="0.969,1.125 2.862,3.265 23.088,3.265 24.949,1.162 "/>
			<polygon i:knockout="Off" fill="#666666" points="0.969,24.859 2.862,22.719 23.088,22.719 24.949,24.822 "/>
			<polygon i:knockout="Off" fill="#CCCCCC" points="0.977,24.859 2.87,22.719 2.87,3.258 1.009,1.155 "/>
			<polygon i:knockout="Off" fill="#CCCCCC" points="24.975,24.859 23.081,22.719 23.081,3.258 24.943,1.155 "/>
			<linearGradient id="XMLID_2_" gradientUnits="userSpaceOnUse" x1="12.9751" y1="3.2578" x2="12.9751" y2="22.7192">
				<stop  offset="0" style="stop-color:#E5E5E5"/>
				<stop  offset="1" style="stop-color:#9E9E9E"/>
				<a:midPointStop  offset="0" style="stop-color:#E5E5E5"/>
				<a:midPointStop  offset="0.5" style="stop-color:#E5E5E5"/>
				<a:midPointStop  offset="1" style="stop-color:#9E9E9E"/>
			</linearGradient>
			<rect x="2.87" y="3.258" i:knockout="Off" fill="url(#XMLID_2_)" width="20.211" height="19.461"/> 
			<g i:knockout="Off">
				<path i:isolated="yes" i:knockout="Off" fill="#CCCCCC" enable-background="new    " d="M19.958,19.521l-0.242-8.704
					c-0.167-2.12-1.156-4.602-1.156-4.602c-0.505-1.167-1.673-0.749-1.673-0.749c-1.11,0.547-0.979,1.897-0.979,1.897l0.626,2.837
					l-1.731-4.797c-0.657-1.876-2.154-1.192-2.154-1.192c-1.303,0.8-0.67,2.24-0.67,2.24l1.504,4.31c0,0-1.898-3.799-2.637-5.165
					c-0.739-1.365-1.969-0.746-1.969-0.746C7.391,5.58,8.388,7.293,8.388,7.293l2.741,4.83L7.422,8.871
					C6.356,8.137,5.266,9.01,5.266,9.01c-0.899,1.388,0.246,2.375,0.246,2.375l3.654,2.916l1.087,1.825l-2.915-1.553
					c-1.617-0.62-2.053,0.731-2.053,0.731c-0.663,1.587,1.037,2.126,1.037,2.126l6.91,3.514l0.639,1.033"/>
				<path i:knockout="Off" fill="#CCCCCC" d="M12.44,3.757c-0.791,0.482-1.036,1.151-1.076,1.756
					c-0.005-0.009-0.079-0.155-0.079-0.155c-0.796-1.47-2.171-1.188-2.634-0.955C8.141,4.655,7.79,5.047,7.642,5.538
					C7.583,5.732,7.56,5.928,7.56,6.116c0,0.722,0.347,1.344,0.396,1.428c0,0,0.641,1.13,1.277,2.25
					c-0.71-0.623-1.481-1.299-1.481-1.299C6.621,7.712,5.431,8.237,4.953,8.62C4.911,8.653,4.875,8.693,4.846,8.738
					c-0.309,0.476-0.425,0.929-0.425,1.338c0,0.782,0.429,1.399,0.764,1.688c0,0,3.461,2.762,3.598,2.871
					c0.01,0.018,0.091,0.152,0.124,0.208c-0.662-0.354-1.334-0.711-1.334-0.711c-0.722-0.281-1.316-0.288-1.82-0.046
					c-0.689,0.33-0.919,0.991-0.943,1.065c-0.12,0.284-0.18,0.567-0.18,0.843c0,0.261,0.055,0.515,0.166,0.754
					c0.381,0.823,1.275,1.127,1.376,1.159c0,0,6.469,3.296,6.71,3.419c0.115,0.187,0.565,0.914,0.565,0.914
					c0.145,0.235,0.453,0.308,0.688,0.163c0.235-0.146,0.308-0.454,0.163-0.688l-0.639-1.033c-0.048-0.078-0.117-0.142-0.199-0.183
					l-6.91-3.514c-0.232-0.083-0.684-0.3-0.849-0.661c-0.105-0.23-0.09-0.501,0.046-0.827c0.014-0.036,0.133-0.368,0.446-0.514
					c0.247-0.113,0.572-0.095,0.966,0.057l2.859,1.527c0.198,0.105,0.442,0.065,0.597-0.097c0.091-0.095,0.138-0.22,0.138-0.345
					c0-0.088-0.023-0.177-0.07-0.256l-1.087-1.825c-0.031-0.052-0.071-0.098-0.118-0.135l-3.654-2.916
					c-0.045-0.041-0.4-0.38-0.4-0.911c0-0.213,0.082-0.465,0.239-0.733c0.168-0.117,0.816-0.521,1.475-0.067l3.661,3.216
					c0.183,0.161,0.456,0.166,0.646,0.012c0.189-0.154,0.239-0.422,0.119-0.634l-2.741-4.83C8.713,6.855,8.464,6.269,8.6,5.824
					c0.068-0.222,0.23-0.394,0.496-0.524c0.19-0.09,0.846-0.319,1.309,0.536l2.629,5.15c0.12,0.234,0.401,0.337,0.643,0.234
					c0.189-0.081,0.305-0.264,0.305-0.459c0-0.054-0.009-0.109-0.028-0.164l-1.504-4.31c-0.028-0.067-0.127-0.321-0.127-0.627
					c0-0.335,0.121-0.733,0.583-1.02c0.018,0,0.384-0.13,0.733,0.023c0.293,0.129,0.525,0.433,0.691,0.906l1.732,4.801
					c0.09,0.248,0.356,0.384,0.609,0.311c0.254-0.073,0.406-0.331,0.35-0.588l-0.626-2.837c0.006,0.021-0.067-0.957,0.712-1.341
					c0.116-0.034,0.703-0.171,0.993,0.499c0.004,0.01,0.958,2.425,1.117,4.442l0.24,8.679c0.008,0.276,0.238,0.494,0.514,0.486
					c0.276-0.008,0.494-0.238,0.486-0.514l-0.242-8.704c-0.173-2.196-1.15-4.669-1.191-4.773c-0.553-1.277-1.75-1.234-2.307-1.035
					c-0.6,0.294-0.929,0.744-1.107,1.177c-0.106-0.295-0.338-0.938-0.338-0.938c-0.263-0.749-0.684-1.252-1.25-1.494
					C13.245,3.409,12.52,3.72,12.44,3.757z"/>
			</g>
			<g>
				<path i:isolated="yes" i:knockout="Off" fill="#F2F2F2" enable-background="new    " d="M19.958,19.521l-0.242-8.704
					c-0.167-2.12-1.156-4.602-1.156-4.602c-0.505-1.167-1.673-0.749-1.673-0.749c-1.11,0.547-0.979,1.897-0.979,1.897l0.626,2.837
					l-1.731-4.797c-0.657-1.876-2.154-1.192-2.154-1.192c-1.303,0.8-0.67,2.24-0.67,2.24l1.504,4.31c0,0-1.898-3.799-2.637-5.165
					c-0.739-1.365-1.969-0.746-1.969-0.746C7.391,5.58,8.388,7.293,8.388,7.293l2.741,4.83L7.422,8.871
					C6.356,8.137,5.266,9.01,5.266,9.01c-0.899,1.388,0.246,2.375,0.246,2.375l3.654,2.916l1.087,1.825l-2.915-1.553
					c-1.617-0.62-2.053,0.731-2.053,0.731c-0.663,1.587,1.037,2.126,1.037,2.126l6.91,3.514l0.639,1.033"/>
				<path i:knockout="Off" fill="#CCCCCC" d="M12.543,3.984c-0.75,0.459-0.97,1.122-0.97,1.693c0,0.347,0.081,0.661,0.175,0.875
					c0,0,0.2,0.574,0.292,0.836c-0.455-0.891-0.976-1.911-0.976-1.911c-0.676-1.249-1.801-1.103-2.301-0.851
					C8.308,4.851,8.011,5.182,7.881,5.61c-0.05,0.167-0.071,0.337-0.071,0.502c0,0.677,0.343,1.276,0.361,1.307
					c0,0,1.223,2.155,2.009,3.54c-1.09-0.956-2.594-2.275-2.594-2.275C6.6,8.001,5.537,8.473,5.109,8.814
					C4.802,9.28,4.688,9.716,4.688,10.102c0,0.692,0.37,1.222,0.661,1.473l3.662,2.922c0,0,0.295,0.506,0.582,0.994
					c-0.837-0.445-2.136-1.138-2.136-1.138c-0.627-0.242-1.155-0.252-1.595-0.041c-0.605,0.289-0.805,0.891-0.813,0.916
					c-0.111,0.265-0.167,0.522-0.167,0.77c0,0.226,0.047,0.442,0.141,0.646c0.342,0.738,1.189,1.014,1.225,1.025
					c0,0,6.688,3.404,6.81,3.467c0.065,0.105,0.602,0.974,0.602,0.974c0.073,0.117,0.227,0.153,0.345,0.081
					c0.117-0.073,0.153-0.227,0.081-0.345l-0.639-1.033c-0.024-0.039-0.059-0.07-0.1-0.091l-6.91-3.514
					c-0.044-0.018-0.714-0.239-0.961-0.777c-0.135-0.294-0.121-0.64,0.042-1.029c0.008-0.022,0.155-0.448,0.565-0.642
					c0.311-0.146,0.704-0.131,1.167,0.047l2.887,1.54c0.099,0.053,0.222,0.033,0.299-0.048s0.091-0.204,0.034-0.301l-1.087-1.825
					l-3.713-2.983c-0.032-0.028-0.958-0.862-0.192-2.044C5.46,9.175,6.384,8.459,7.28,9.077l3.684,3.234
					c0.092,0.081,0.228,0.083,0.323,0.006s0.12-0.211,0.06-0.317l-2.741-4.83C8.6,7.16,8.165,6.396,8.36,5.752
					C8.45,5.459,8.654,5.238,8.986,5.075c0.105-0.052,1.038-0.469,1.639,0.641l2.633,5.158c0.06,0.117,0.201,0.169,0.321,0.117
					c0.095-0.041,0.152-0.132,0.152-0.229c0-0.027-0.004-0.055-0.014-0.082l-1.504-4.31c-0.014-0.033-0.14-0.334-0.14-0.712
					c0-0.4,0.142-0.886,0.705-1.232c0.007,0,0.485-0.196,0.956,0.007c0.362,0.156,0.641,0.511,0.832,1.054l1.732,4.799
					c0.045,0.124,0.179,0.192,0.305,0.155c0.127-0.037,0.203-0.166,0.175-0.294l-0.626-2.837c0-0.018-0.092-1.158,0.846-1.62
					c0.07-0.022,0.937-0.292,1.333,0.624c0.007,0.018,0.975,2.465,1.137,4.522l0.241,8.691c0.004,0.138,0.119,0.247,0.257,0.243
					s0.247-0.119,0.243-0.257l-0.242-8.704c-0.169-2.146-1.133-4.584-1.174-4.688c-0.476-1.1-1.509-1.063-1.989-0.892
					c-0.939,0.461-1.11,1.353-1.137,1.83c-0.291-0.806-0.629-1.742-0.629-1.742c-0.239-0.682-0.613-1.136-1.112-1.349
					C13.234,3.676,12.571,3.972,12.543,3.984z"/>
			</g>
		</g>
	</svg>
