<?xml version="1.0" encoding="UTF-8" standalone="no"?>
<!-- Created with Inkscape (http://www.inkscape.org/) -->
<svg
   xmlns:dc="http://purl.org/dc/elements/1.1/"
   xmlns:cc="http://web.resource.org/cc/"
   xmlns:rdf="http://www.w3.org/1999/02/22-rdf-syntax-ns#"
   xmlns:svg="http://www.w3.org/2000/svg"
   xmlns="http://www.w3.org/2000/svg"
   xmlns:xlink="http://www.w3.org/1999/xlink"
   xmlns:sodipodi="http://sodipodi.sourceforge.net/DTD/sodipodi-0.dtd"
   xmlns:inkscape="http://www.inkscape.org/namespaces/inkscape"
   version="1.0"
   width="457.93942"
   height="452.01617"
   id="svg2"
   sodipodi:version="0.32"
   inkscape:version="0.45.1"
   sodipodi:docname="fff.svg"
   sodipodi:docbase="/home/gmaxwell"
   inkscape:output_extension="org.inkscape.output.svg.inkscape">
  <metadata
     id="metadata7385">
    <rdf:RDF>
      <cc:Work
         rdf:about="">
        <dc:format>image/svg+xml</dc:format>
        <dc:type
           rdf:resource="http://purl.org/dc/dcmitype/StillImage" />
      </cc:Work>
    </rdf:RDF>
  </metadata>
  <sodipodi:namedview
     inkscape:window-height="620"
     inkscape:window-width="814"
     inkscape:pageshadow="2"
     inkscape:pageopacity="0.0"
     guidetolerance="10.0"
     gridtolerance="10.0"
     objecttolerance="10.0"
     borderopacity="1.0"
     bordercolor="#666666"
     pagecolor="#ffffff"
     id="base"
     inkscape:zoom="0.814"
     inkscape:cx="250"
     inkscape:cy="254.24773"
     inkscape:window-x="367"
     inkscape:window-y="282"
     inkscape:current-layer="svg2" />
  <defs
     id="defs3">
    <linearGradient
       id="linearGradient2345">
      <stop
         style="stop-color:#000000;stop-opacity:1"
         offset="0"
         id="stop2347" />
      <stop
         style="stop-color:#000000;stop-opacity:0"
         offset="1"
         id="stop2349" />
    </linearGradient>
    <linearGradient
       id="linearGradient2302">
      <stop
         style="stop-color:#252525;stop-opacity:1"
         offset="0"
         id="stop2304" />
      <stop
         style="stop-color:#252525;stop-opacity:0"
         offset="1"
         id="stop2306" />
    </linearGradient>
    <linearGradient
       id="linearGradient2286">
      <stop
         style="stop-color:#909090;stop-opacity:1"
         offset="0"
         id="stop2288" />
      <stop
         style="stop-color:#909090;stop-opacity:0"
         offset="1"
         id="stop2290" />
    </linearGradient>
    <linearGradient
       id="linearGradient2276">
      <stop
         style="stop-color:#000000;stop-opacity:1"
         offset="0"
         id="stop2278" />
      <stop
         style="stop-color:#ffffff;stop-opacity:0"
         offset="1"
         id="stop2280" />
    </linearGradient>
    <linearGradient
       id="linearGradient2261">
      <stop
         style="stop-color:#ffffff;stop-opacity:1"
         offset="0"
         id="stop2263" />
      <stop
         style="stop-color:#000000;stop-opacity:0"
         offset="1"
         id="stop2265" />
    </linearGradient>
    <linearGradient
       id="linearGradient2251">
      <stop
         style="stop-color:#000000;stop-opacity:1"
         offset="0"
         id="stop2253" />
      <stop
         style="stop-color:#000000;stop-opacity:0"
         offset="1"
         id="stop2255" />
    </linearGradient>
    <linearGradient
       id="linearGradient2210">
      <stop
         style="stop-color:#000000;stop-opacity:1"
         offset="0"
         id="stop2212" />
      <stop
         style="stop-color:#000000;stop-opacity:0"
         offset="1"
         id="stop2214" />
    </linearGradient>
    <linearGradient
       id="linearGradient2198">
      <stop
         style="stop-color:#393939;stop-opacity:1"
         offset="0"
         id="stop2200" />
      <stop
         style="stop-color:#e5e5e5;stop-opacity:1"
         offset="1"
         id="stop2202" />
    </linearGradient>
    <linearGradient
       id="linearGradient2186">
      <stop
         style="stop-color:#242424;stop-opacity:1"
         offset="0"
         id="stop2188" />
      <stop
         style="stop-color:#b6b6b6;stop-opacity:1"
         offset="1"
         id="stop2190" />
    </linearGradient>
    <linearGradient
       id="linearGradient2148">
      <stop
         style="stop-color:#006edc;stop-opacity:0.78787881"
         offset="0"
         id="stop2150" />
      <stop
         style="stop-color:#ffffff;stop-opacity:0.63350785"
         offset="1"
         id="stop2152" />
    </linearGradient>
    <linearGradient
       x1="36.672367"
       y1="163.14761"
       x2="234.16563"
       y2="161.56711"
       id="linearGradient2154"
       xlink:href="#linearGradient2148"
       gradientUnits="userSpaceOnUse"
       gradientTransform="scale(1.121135,0.891953)" />
    <linearGradient
       x1="31.607275"
       y1="164.78404"
       x2="231.81575"
       y2="152.88623"
       id="linearGradient2192"
       xlink:href="#linearGradient2186"
       gradientUnits="userSpaceOnUse"
       gradientTransform="scale(1.118578,0.893992)" />
    <linearGradient
       x1="201.84203"
       y1="99.30957"
       x2="53.26791"
       y2="231.73593"
       id="linearGradient2204"
       xlink:href="#linearGradient2198"
       gradientUnits="userSpaceOnUse"
       gradientTransform="scale(1.121135,0.891953)" />
    <linearGradient
       x1="227.75024"
       y1="100.16859"
       x2="49.223515"
       y2="228.92366"
       id="linearGradient2216"
       xlink:href="#linearGradient2210"
       gradientUnits="userSpaceOnUse"
       gradientTransform="scale(1.121135,0.891953)" />
    <radialGradient
       cx="310.56146"
       cy="156.9817"
       r="214.41304"
       fx="310.56146"
       fy="156.9817"
       id="radialGradient2249"
       xlink:href="#linearGradient2251"
       gradientUnits="userSpaceOnUse"
       gradientTransform="scale(1.009804,0.990291)" />
    <linearGradient
       x1="281.99493"
       y1="240.15747"
       x2="269.46866"
       y2="253.3484"
       id="linearGradient2282"
       xlink:href="#linearGradient2276"
       gradientUnits="userSpaceOnUse"
       gradientTransform="scale(0.986551,1.013632)" />
    <linearGradient
       x1="251.94788"
       y1="265.99414"
       x2="256.40616"
       y2="262.00552"
       id="linearGradient2292"
       xlink:href="#linearGradient2286"
       gradientUnits="userSpaceOnUse"
       gradientTransform="scale(0.992933,1.007118)" />
    <linearGradient
       x1="397.07886"
       y1="346.36777"
       x2="376.3584"
       y2="367.08777"
       id="linearGradient2308"
       xlink:href="#linearGradient2302"
       gradientUnits="userSpaceOnUse"
       gradientTransform="scale(0.99742,1.002586)" />
    <linearGradient
       inkscape:collect="always"
       xlink:href="#linearGradient2302"
       id="linearGradient7409"
       gradientUnits="userSpaceOnUse"
       gradientTransform="scale(0.99742,1.002586)"
       x1="397.07886"
       y1="346.36777"
       x2="376.3584"
       y2="367.08777" />
    <linearGradient
       inkscape:collect="always"
       xlink:href="#linearGradient2276"
       id="linearGradient7411"
       gradientUnits="userSpaceOnUse"
       gradientTransform="scale(0.986551,1.013632)"
       x1="281.99493"
       y1="240.15747"
       x2="269.46866"
       y2="253.3484" />
    <linearGradient
       inkscape:collect="always"
       xlink:href="#linearGradient2286"
       id="linearGradient7413"
       gradientUnits="userSpaceOnUse"
       gradientTransform="scale(0.992933,1.007118)"
       x1="251.94788"
       y1="265.99414"
       x2="256.40616"
       y2="262.00552" />
    <linearGradient
       inkscape:collect="always"
       xlink:href="#linearGradient2210"
       id="linearGradient2227"
       gradientUnits="userSpaceOnUse"
       gradientTransform="matrix(0.2117028,1.2681281,-1.2375571,0.2304869,315.15109,-74.480607)"
       x1="227.75024"
       y1="100.16859"
       x2="49.223515"
       y2="228.92366" />
    <linearGradient
       inkscape:collect="always"
       xlink:href="#linearGradient2198"
       id="linearGradient2230"
       gradientUnits="userSpaceOnUse"
       gradientTransform="matrix(0.2049693,1.2318538,-1.1981988,0.2238936,309.68779,-68.277337)"
       x1="201.84203"
       y1="99.30957"
       x2="53.26791"
       y2="231.73593" />
    <linearGradient
       inkscape:collect="always"
       xlink:href="#linearGradient2148"
       id="linearGradient2233"
       gradientUnits="userSpaceOnUse"
       gradientTransform="matrix(0.2013884,1.2169225,-1.1772665,0.2211794,306.58919,-65.852497)"
       x1="36.672367"
       y1="163.14761"
       x2="234.16563"
       y2="161.56711" />
  </defs>
  <g
     id="g3214">
    <g
       transform="translate(-19.232607,-17.063487)"
       id="layer4">
      <path
         id="path2235"
         style="fill:#000000;fill-opacity:0.44200625;fill-rule:evenodd;stroke:none;stroke-width:1px;stroke-linecap:butt;stroke-linejoin:miter;stroke-opacity:1;display:inline"
         d="M 204.49634,33.225859 C 204.49634,33.225859 224.39122,47.764422 240.46016,62.302983 C 276.42396,96.353826 270.30246,144.94321 270.30246,154.50806 C 269.91987,164.83809 268.3895,204.62784 243.9035,227.96606 C 230.89531,241.35684 211.00043,255.13021 197.22706,260.10393 C 183.45368,265.07765 163.55881,271.19916 121.8561,267.37322 C 131.80353,270.81656 152.84619,275.40768 161.26325,275.79028 C 169.68031,276.17287 199.14003,270.81656 199.14003,270.81656 L 232.80828,252.83465 L 262.268,222.60975 L 283.69325,175.55072 L 283.31065,123.51797 L 266.47653,82.197858 L 233.95606,44.703672 C 233.95606,44.703672 204.49634,33.225859 204.49634,33.225859 z " />
      <path
         id="path2239"
         style="fill:#000000;fill-opacity:0.44200625;fill-rule:evenodd;stroke:none;stroke-width:1px;stroke-linecap:butt;stroke-linejoin:miter;stroke-opacity:1;display:inline"
         d="M 206.79191,33.991052 C 206.79191,33.991052 226.68679,48.529615 242.75573,63.068176 C 278.71953,97.119019 272.59803,145.7084 272.59803,155.27325 C 272.21544,165.60328 270.68507,205.39303 246.19907,228.73125 C 233.19088,242.12203 213.296,255.8954 199.52263,260.86912 C 185.74925,265.84284 165.85438,271.96435 124.15167,268.13841 C 134.0991,271.58175 155.14176,275.40768 163.55882,275.79028 C 171.97588,276.17287 207.5571,266.99063 203.73116,268.13841 L 233.19088,252.83465 L 262.26801,222.60975 L 283.69326,176.31591 L 285.60622,124.28316 L 268.7721,82.963051 L 236.25163,45.468865 C 236.25163,45.468865 206.79191,33.991052 206.79191,33.991052 z " />
      <rect
         id="rect2295"
         style="fill:#45617a;fill-opacity:1;fill-rule:nonzero;stroke:none;stroke-width:2;stroke-miterlimit:4;stroke-opacity:1;display:inline"
         transform="matrix(0.707107,-0.707107,0.707107,0.707107,0,0)"
         y="385.5957"
         x="-18.087612"
         ry="6.4697714"
         rx="6.7350779"
         height="263.55255"
         width="47.619556" />
      <path
         id="rect2297"
         style="fill:url(#linearGradient7409);fill-opacity:1;fill-rule:nonzero;stroke:none;stroke-width:2;stroke-miterlimit:4;stroke-opacity:1;display:inline"
         d="M 293.44073,254.58176 C 291.75302,254.61567 290.04117,255.29382 288.72198,256.61301 L 273.64365,271.6928 L 458.53949,459.1226 L 475.09698,442.98801 C 477.73536,440.34963 477.81892,436.17871 475.28448,433.64426 L 298.06573,256.42551 C 296.7985,255.15828 295.12844,254.54785 293.44073,254.58176 z " />
      <path
         id="path2353"
         style="fill:#ffffff;fill-opacity:0.338558;fill-rule:evenodd;stroke:none;stroke-width:1px;stroke-linecap:butt;stroke-linejoin:miter;stroke-opacity:1;display:inline"
         d="M 270.9498,275.20611 C 267.87668,278.27923 265.30179,279.17715 263.60066,283.89005 C 262.7269,289.31213 267.34576,291.53114 269.7097,294.48607 C 268.64593,290.23097 265.91693,287.33869 266.69665,283.70003 C 267.71275,281.00694 268.82225,278.51563 270.9498,275.20611 z " />
    </g>
    <g
       transform="translate(-19.232607,-17.063487)"
       id="layer5"
       style="display:inline">
      <rect
         id="rect2270"
         style="fill:#e9e9e9;fill-opacity:1;fill-rule:nonzero;stroke:none;stroke-width:2;stroke-miterlimit:4;stroke-opacity:1"
         transform="matrix(0.707107,-0.707107,0.707107,0.707107,0,0)"
         y="346.21573"
         x="-10.779988"
         ry="0.30123928"
         height="39.477566"
         width="33.712364" />
      <path
         id="path2274"
         style="fill:url(#linearGradient7411);fill-opacity:1;fill-rule:evenodd;stroke:none;stroke-width:1px;stroke-linecap:butt;stroke-linejoin:miter;stroke-opacity:1"
         d="M 252.91198,240.98178 L 278.61499,266.68479 L 289.12341,256.6024 L 262.28435,229.47933 L 252.91198,240.98178 z " />
      <path
         id="path2284"
         style="fill:url(#linearGradient7413);fill-opacity:1;fill-rule:evenodd;stroke:none;stroke-width:1px;stroke-linecap:butt;stroke-linejoin:miter;stroke-opacity:1"
         d="M 238.2854,253.47827 L 264.84045,280.45934 L 268.10658,277.47722 L 240.98351,249.92813 L 238.2854,253.47827 z " />
    </g>
    <path
       d="M 163.53987,254.8443 C 97.770239,267.20079 35.332786,222.10489 24.081939,154.11979 C 12.831093,86.134685 57.027319,21.004947 122.79695,8.6484529 C 188.5666,-3.7080427 251.00404,41.387856 262.25488,109.37296 C 273.50573,177.35806 229.30952,242.4878 163.53987,254.8443 z "
       style="fill:url(#linearGradient2233);fill-opacity:1;fill-rule:nonzero;stroke:none;stroke-opacity:1"
       id="path1387" />
    <path
       d="M 164.09502,256.35438 C 97.155969,268.86251 33.608343,223.21331 22.157444,154.39405 C 10.706546,85.57479 55.688595,19.645911 122.62765,7.1377833 C 189.5667,-5.3703456 253.11432,40.278847 264.56522,109.09811 C 276.01611,177.91737 231.03408,243.84625 164.09502,256.35438 z "
       style="fill:none;fill-opacity:1;fill-rule:nonzero;stroke:url(#linearGradient2230);stroke-width:7;stroke-miterlimit:4;stroke-opacity:1"
       id="path2194" />
    <path
       d="M 164.77607,259.71057 C 95.638215,272.58705 30.00315,225.59364 18.176072,154.74786 C 6.3489949,83.902082 52.808578,16.031784 121.94644,3.155312 C 191.0843,-9.7211618 256.71935,37.272245 268.54643,108.11802 C 280.37351,178.9638 233.91394,246.8341 164.77607,259.71057 z "
       style="fill:none;fill-opacity:1;fill-rule:nonzero;stroke:url(#linearGradient2227);stroke-width:2.0622921;stroke-miterlimit:4;stroke-opacity:1;display:inline"
       id="path2206" />
    <path
       d="M 163.15297,252.06249 C 98.243849,264.15594 36.623304,220.02034 25.519647,153.48289 C 14.41599,86.945446 58.033949,23.202511 122.94307,11.109071 C 187.85219,-0.98437132 249.47272,43.151218 260.57638,109.68866 C 271.68004,176.22612 228.06209,239.96905 163.15297,252.06249 z "
       style="fill:none;fill-opacity:1;fill-rule:nonzero;stroke:#9f9f9f;stroke-width:2.375;stroke-miterlimit:4;stroke-opacity:1;display:inline"
       id="path2218" />
    <path
       d="M 64.563396,48.548849 C 64.563396,48.548849 44.01986,96.934283 45.912028,135.04795 C 47.804195,173.16162 58.886892,211.00497 58.886892,211.00497 C 58.886892,211.00497 41.046453,192.62391 35.64026,173.70224 C 30.234066,154.78056 24.557562,121.80278 35.64026,94.501503 C 46.722957,67.200217 64.563396,48.548849 64.563396,48.548849 z "
       style="fill:#ffffff;fill-opacity:0.28526647;fill-rule:evenodd;stroke:none;stroke-width:1px;stroke-linecap:butt;stroke-linejoin:miter;stroke-opacity:1;display:inline"
       id="path2229" />
    <path
       d="M 0.5,46.656681 L 0.5,46.656681 z "
       style="fill:none;fill-opacity:0.75;fill-rule:evenodd;stroke:#000000;stroke-width:1px;stroke-linecap:butt;stroke-linejoin:miter;stroke-opacity:1;display:inline"
       id="path2231" />
    <path
       d="M 58.14586,60.037008 C 58.14586,60.037008 44.688726,104.09748 43.669691,126.8035 C 43.461584,151.13138 55.256154,203.30114 55.256154,203.30114 C 55.256154,203.30114 40.574948,186.00132 36.805969,171.94522 C 32.766679,153.02354 28.525423,125.72227 33.832563,106.80059 C 42.113107,79.499305 58.14586,60.037008 58.14586,60.037008 z "
       style="fill:#ffffff;fill-opacity:0.28526647;fill-rule:evenodd;stroke:none;stroke-width:1px;stroke-linecap:butt;stroke-linejoin:miter;stroke-opacity:1;display:inline"
       id="path2233" />
    <g
       transform="matrix(0.5910601,0,0,0.5910601,0.358885,-14.295276)"
       style="stroke:#0009a7;stroke-width:14.53490067;stroke-linejoin:miter;stroke-miterlimit:4;stroke-dasharray:none;stroke-opacity:1;display:inline;fill:#ffffff;fill-opacity:1"
       id="g2831">
      <path
         d="M 203.2373,253.14062 C 203.2373,222.74854 202.24023,222.25049 174.33936,218.7627 L 174.33936,201.82275 L 281.45898,201.82275 L 281.45898,359.7627 C 281.45898,388.16113 283.9502,390.65332 310.35742,393.64258 L 310.35742,413.07324 L 174.33936,413.07324 L 174.33936,393.64258 C 200.74609,390.65332 203.2373,388.16113 203.2373,359.7627 L 203.2373,253.14062 z M 284.44824,116.625 C 284.44824,140.54004 265.5166,159.97168 241.10254,159.97168 C 217.68555,159.97168 197.75635,140.54004 197.75635,116.625 C 197.75635,92.211914 217.68555,73.279297 241.10254,73.279297 C 265.5166,73.279297 284.44824,92.211914 284.44824,116.625 z "
         style="fill:#ffffff;stroke:#0009a7;stroke-width:14.53490067;stroke-linejoin:miter;stroke-miterlimit:4;stroke-dasharray:none;stroke-opacity:1;fill-opacity:1"
         id="path2833" />
    </g>
  </g>
</svg>
